<svg xmlns="http://www.w3.org/2000/svg" viewBox="0 0 79.88 79.88"><circle fill="#159bd7" cx="39.94" cy="39.94" r="39.94"/><path fill="#ffce06" d="M142.28,400.73a8.38,8.38,0,0,0-7.17-4.5h0l17.25-3.56L135.13,389h0a14,14,0,0,1,8.56-3.18c3.79-.05,7.08-4.68,5-8.25,0,0-.64,5.6-7.71,3.72a8.39,8.39,0,0,0-8.25,1.89h0l9.68-14.72-14.75,9.62h0a14,14,0,0,1,3.81-8.31c2.64-2.71,1.69-8.32-2.31-9.37,0,0,3.51,4.41-2.82,8.08a8.37,8.37,0,0,0-4.49,7.18h0l-3.56-17.24-3.63,17.23h0a13.85,13.85,0,0,1-3.18-8.56c0-3.8-4.69-7.09-8.26-5,0,0,5.6.63,3.72,7.71a8.36,8.36,0,0,0,1.9,8.25h0L94.1,368.4h0l7.84,12,1.78,2.73h0a13.94,13.94,0,0,1-8.31-3.81c-2.72-2.65-8.32-1.7-9.37,2.31,0,0,4.41-3.52,8.08,2.81a8.37,8.37,0,0,0,7.17,4.5h0l-17.24,3.56,17.23,3.62h0a14,14,0,0,1-8.57,3.18c-3.79.05-7.08,4.68-5,8.25,0,0,.64-5.6,7.71-3.72a8.39,8.39,0,0,0,8.26-1.89h0L94,416.7l14.74-9.62a13.89,13.89,0,0,1-3.8,8.31c-2.65,2.71-1.7,8.32,2.3,9.37,0,0-3.52-4.41,2.82-8.08a8.39,8.39,0,0,0,4.5-7.18h0l3.56,17.24,3.62-17.23h0a13.89,13.89,0,0,1,3.18,8.57c0,3.79,4.69,7.08,8.26,5,0,0-5.6-.63-3.72-7.7a8.41,8.41,0,0,0-1.89-8.26h0l14.71,9.68L137.23,409l-4.54-7h0a14,14,0,0,1,8.3,3.81c2.72,2.65,8.32,1.7,9.37-2.3C150.36,403.55,146,407.06,142.28,400.73Z" transform="translate(-78.26 -352.65)"/></svg>