<?xml version="1.0" encoding="UTF-8"?>
<svg id="Layer_1" data-name="Layer 1" xmlns="http://www.w3.org/2000/svg" xmlns:xlink="http://www.w3.org/1999/xlink" viewBox="0 0 242 108">
  <defs>
    <style>
      .cls-1 {
        fill: url(#linear-gradient);
      }

      .cls-2 {
        fill: #fff;
      }

      .cls-3 {
        fill: #2e3191;
        fill-rule: evenodd;
      }

      .cls-4 {
        clip-rule: evenodd;
        fill: none;
      }

      .cls-5 {
        clip-path: url(#clippath);
      }
    </style>
    <clipPath id="clippath">
      <path class="cls-4" d="M85.46,56.54c.45-.47.74-1.08.81-1.77l25.5.31c.05.67.32,1.28.74,1.76l-12.02,12.63c-.51-.41-1.15-.65-1.86-.65-.67,0-1.28.22-1.77.59l-11.39-12.86ZM142.47,62.63c-.08.25-.13.52-.15.8l-40.83,7.56c-.12-.45-.35-.85-.64-1.19l12.02-12.63c.51.41,1.15.65,1.86.65,1.28,0,2.37-.81,2.79-1.95l24.96,6.75ZM15.69,45.09l3.9,2.67,2.01-6.88-1.93-3.96-3.98,8.18ZM15.76,45.48l2.25,7.7,1.5-5.13-3.75-2.57ZM11.51,30.95l4.03,13.8,3.97-8.16-4.06-8.34-3.94,2.7ZM3.77,4.27l-.05.02,7.71,26.38,3.9-2.67L3.77,4.27ZM11.5,53.69l3.97,8.16,2.38-8.16-2.38-8.16-3.97,8.16ZM4.6,37.84c-.15.19-.34.36-.57.49l7.32,15.03,3.98-8.18-10.73-7.34ZM4.76,35.57s.05.09.07.14c.3.63.25,1.34-.07,1.9l10.51,7.19-4-13.68-6.51,4.45ZM27.25,86.01l.05-.02-5.58-19.09-1.89,3.88,7.42,15.23ZM26.99,51.94l-5.2-10.69-1.95,6.67,6.58,4.51c.14-.17.38-.38.57-.49ZM15.33,79.38l-3.9-2.67-7.71,26.38.05.02,11.56-23.73ZM11.51,76.43l3.94,2.7,4.06-8.34-3.97-8.16-4.03,13.8ZM15.26,62.58l-10.51,7.19c.33.56.37,1.27.07,1.9-.02.05-.05.09-.07.14l6.51,4.45,4-13.68ZM19.59,59.62l-3.9,2.67,3.98,8.18,1.93-3.96-2.01-6.88ZM19.75,59.16l6.51-4.45h0s0,0,0,0h0s0,0,0,0h0s0,0,0,0h0s0,0,0,0h0s0,0,0,0h0s0,0,0,0h0c-.37-.66-.34-1.39.01-2.02l-6.51-4.45-1.6,5.47,1.6,5.47ZM15.76,61.9l3.75-2.57-1.5-5.13-2.25,7.7ZM4.6,69.53l10.73-7.34-3.98-8.18-7.32,15.03c.23.13.42.3.57.49ZM26.19,87.01v.02s-.02.02-.02.02h0s-.01.04-.01.04h0s-.02.05-.02.05h0s-.01.05-.01.05h0c-.17.47-.17.96.01,1.43h0s.01.04.01.04h0s.01.03.01.03v.02s.01.01.01.01v.03s.02,0,.02,0v.03s.02.02.02.02c.02.03.04.07.06.1l-21.67,14.83c-.16-.2-.35-.36-.57-.49l11.54-23.69,10.7,7.32h0c-.02.05-.05.1-.07.14ZM26.91,86.19h0s0,.01,0,.01h0s0,0,0,0h-.02s-.09.07-.13.1h0s0,.01,0,.01h0s0,.02,0,.02h0s0,0,0,0h0s0,.02,0,.02c-.09.08-.18.17-.25.26l-10.73-7.34,3.98-8.18,7.32,15.03-.09.05ZM40.59,62.45l9.13,6.23c-.39.61-.61,1.33-.61,2.11s.22,1.5.61,2.11l-20.13,13.74h0s-.02-.03-.02-.03h0s0,0,0,0h0s0-.02,0-.02h0s0-.02,0-.02h0s0-.01,0-.01h0s0-.02,0-.02c-.11-.13-.24-.24-.38-.33-.03-.02-.07-.04-.1-.07l11.57-23.69ZM28.17,55.7h0s0,0,0,0h.03c.52-.06,1.02-.31,1.37-.76l10.77,7.35-11.59,23.73c-.37-.15-.8-.18-1.19-.1l-5.67-19.39,5.34-10.97c.3.12.62.16.92.14ZM26.82,55.32h0s0,0,0,0h0s0,.01,0,.01h.02s.01.02.01.02h.01s0,.01,0,.01h0s.06.04.09.06l-5.2,10.69-1.95-6.67,6.58-4.51c.11.14.25.27.4.38ZM51.2,67.3c-.52.28-.97.67-1.32,1.14l-9.17-6.25,4-8.18,6.49,13.29ZM40.48,45.35l1.93,3.94,2.15,4.4-4.07,8.34-10.73-7.32c.06-.1.11-.2.15-.31h0s.01-.04.01-.04h0c.09-.25.12-.5.11-.74h0s0-.02,0-.02c-.01-.32-.1-.63-.26-.91v-.02s10.72-7.32,10.72-7.32ZM27.82,21.5h.01s.03,0,.03,0h.02s0,0,0,0h.02s.02,0,.02,0h.01s0,0,0,0h.02s.02,0,.02,0h.02s.02,0,.02,0h.04s.02,0,.02,0h.02s.02,0,.02,0h0s.01,0,.01,0h.02s.02,0,.02,0h0s.02,0,.02,0h.02s0,0,0,0h.01s.02,0,.02,0h.02s0,0,0,0h.02s.02,0,.02,0h0s.01,0,.01,0h.04s0,0,0,0c.14-.02.28-.06.42-.12l11.59,23.73-10.77,7.35c-.57-.71-1.48-.94-2.33-.62l-5.34-10.97,5.67-19.39c.08.02.16.03.24.04ZM27.25,21.36h.04s0,.01,0,.01h.01s-5.58,19.1-5.58,19.1l-1.89-3.88,7.42-15.23ZM26.42,20.75h.01s0,.02,0,.02h0s.06.07.09.11h0s0,.01,0,.01h0s0,.01,0,.01h0s.01.01.01.01h0s.02.03.02.03h0s0,.01,0,.01h0s0,.01,0,.01h0s0,0,0,0c.08.07.16.14.24.2h0s0,0,0,0l.06.04h0s0,.01,0,.01h0s0,0,0,0l.03.02-7.32,15.03-3.98-8.18,10.73-7.34ZM26.11,20.17s.03.12.08.21c.02.05.05.09.07.13l-10.7,7.32L4.02,4.14c.22-.13.41-.3.57-.49l21.67,14.83-.03.05c-.31.57-.32,1.1-.12,1.64ZM40.59,44.93l-11.57-23.69h0s0,0,0,0h0s0,0,0,0h0c.22-.13.4-.3.55-.49l21.74,14.83c-.38.64-.35,1.42,0,2.03h0s-10.73,7.32-10.73,7.32ZM44.71,53.37l-.44-.9-3.56-7.28,10.77-7.35h0c.12.16.27.3.44.42.04.03.08.05.13.08h0s-7.34,15.03-7.34,15.03ZM220.86,40.47l-5.58-19.09.05-.02,7.42,15.23-1.89,3.88ZM226.89,45.09l-3.9,2.67-2.01-6.88,1.93-3.96,3.98,8.18ZM226.83,45.48l-2.25,7.7-1.5-5.13,3.75-2.57ZM231.07,30.95l-4.03,13.8-3.97-8.16,4.06-8.34,3.94,2.7ZM238.81,4.27l.05.02-7.71,26.38-3.9-2.67,11.56-23.73ZM231.08,53.69l-3.97,8.16-2.38-8.16,2.38-8.16,3.97,8.16ZM237.99,37.85c.15.19.34.36.57.49l-7.32,15.03-3.98-8.18,10.73-7.34ZM237.83,35.57s-.05.09-.07.14c-.3.63-.25,1.34.07,1.9l-10.51,7.19,4-13.68,6.51,4.45ZM215.33,86.02l-.05-.02,5.58-19.09,1.89,3.88-7.42,15.23ZM213,52.44l-10.77-7.35,11.59-23.73c.37.15.79.18,1.19.1l5.67,19.39-5.34,10.97c-.85-.32-1.76-.1-2.33.62ZM215.59,51.94l5.21-10.69,1.95,6.67-6.58,4.51c-.14-.17-.38-.38-.57-.49ZM201.87,62.2l-10.77,7.34c-.16-.21-.36-.37-.57-.5l7.34-15.03,4,8.18ZM212.85,54.72l-10.74,7.32-4.08-8.34,4.07-8.34,10.73,7.32c-.35.69-.39,1.36,0,2.04ZM227.25,79.38l3.9-2.67,7.71,26.38-.05.02-11.56-23.73ZM216.33,86.88h0s10.7-7.33,10.7-7.33l11.54,23.69c-.22.13-.41.3-.57.49l-21.67-14.83c.37-.65.37-1.38,0-2.03ZM213.57,86.14c-.22.14-.41.29-.57.49h0s-21.74-14.83-21.74-14.83v-2.03s10.73-7.32,10.73-7.32l11.57,23.69ZM213.82,86.01l-11.59-23.73,10.77-7.35h0c.55.69,1.49.96,2.33.62l5.34,10.97-5.67,19.39c-.39-.09-.82-.05-1.19.1ZM226.89,79.29l-10.73,7.34c-.16-.2-.35-.36-.57-.49l7.32-15.03,3.98,8.18ZM231.07,76.43l-3.94,2.7-4.06-8.34,3.97-8.16,4.03,13.8ZM227.32,62.58l10.51,7.19c-.33.56-.37,1.27-.07,1.9.02.05.05.09.07.14l-6.51,4.45-4-13.68ZM222.99,59.62l3.9,2.67-3.98,8.18-1.93-3.96,2.01-6.88ZM216.16,54.94l6.58,4.51-1.95,6.67-5.21-10.69c.23-.13.42-.3.57-.49ZM222.83,59.16l-6.51-4.45h0s0,0,0,0h0s0,0,0,0h0s0,0,0,0h0s0,0,0,0h0s0,0,0,0h0s0,0,0,0h0c.37-.66.34-1.39-.01-2.02l6.51-4.45,1.6,5.47-1.6,5.47ZM226.83,61.9l-3.75-2.57,1.5-5.14,2.25,7.7ZM237.99,69.53l-10.73-7.34,3.98-8.18,7.32,15.03c-.23.13-.42.3-.57.49ZM215.63,21.21h0s0-.01,0-.01h0s.06-.04.06-.04l.06-.04h0s0-.01,0-.01h0c.13-.1.25-.21.36-.36l10.73,7.34-3.98,8.18-7.32-15.03.04-.03ZM191.26,37.61c.36-.61.38-1.39,0-2.03l21.74-14.83c.12.15.25.28.4.38h.02s.02.02.02.02h.02s.08.06.11.09l-11.57,23.69-10.73-7.32h0ZM190.53,38.34s.08-.05.13-.08c.17-.12.32-.26.44-.41h0s10.77,7.34,10.77,7.34l-4,8.18-7.34-15.03h0ZM145.28,66.53c1.4,0,2.57-.97,2.88-2.28l18.96,5.65c-.07.29-.1.58-.1.89,0,2.18,1.77,3.95,3.95,3.95s3.95-1.77,3.95-3.95c0-1.41-.74-2.65-1.85-3.35l15.71-28.97c.47.18,1.01.19,1.49,0l7.44,15.23-7.44,15.23c-.06-.02-.12-.05-.18-.06h-.03s-.01-.01-.01-.01h-.03s-.01-.01-.01-.01h-.03s-1.5.24-1.5.24h0s-.04.02-.04.02h0s-.04.03-.04.03h0s-.68.78-.68.78l.93,2.7c.75.36,1.63.23,2.25-.32.08-.07.15-.15.22-.24l21.74,14.83c-.57,1.05-.19,2.26.77,2.78h0s.03.02.03.02l.04.02h0s.04.02.04.02h0c.84.39,1.85.14,2.42-.58l21.67,14.83c-.27.46-.36,1.03-.2,1.58.31,1.06,1.43,1.68,2.5,1.37,1.06-.31,1.68-1.43,1.37-2.5-.3-1.02-1.34-1.63-2.36-1.4l-7.74-26.47,6.58-4.51c.58.73,1.59.97,2.46.56,1.01-.49,1.41-1.69.93-2.7-.47-.96-1.59-1.37-2.57-.99l-7.42-15.23,7.42-15.23c.98.39,2.1-.02,2.57-.99.48-1,.08-2.2-.93-2.7-.87-.41-1.89-.17-2.46.56l-6.58-4.51,7.74-26.47c1.02.23,2.06-.39,2.36-1.4.32-1.07-.31-2.19-1.37-2.5-1.07-.32-2.19.31-2.5,1.37-.16.55-.07,1.12.2,1.58l-21.67,14.83c-.14-.16-.26-.29-.44-.41-.63-.44-1.37-.45-1.98-.16-.08.03-.18.08-.3.16-.29.2-.51.46-.66.75h0s-.02.04-.02.04c-.07.13-.12.28-.15.43h0c-.09.39-.06.77.06,1.12h0s.01.04.01.04h0s.01.04.01.04h0s0,.04,0,.04c.03.08.07.16.12.24l-21.74,14.83c-.65-.82-1.83-1.01-2.72-.42-.92.63-1.16,1.89-.53,2.8.14.2.31.37.49.5l-15.71,28.97c-.51-.23-1.07-.37-1.66-.37-1.7,0-3.15,1.08-3.71,2.59l-19.03-5.67c0-.06,0-.13,0-.19,0-1.64-1.33-2.96-2.96-2.96-1.13,0-2.12.64-2.62,1.57l-25.03-6.77c.03-.17.05-.35.05-.53,0-1.64-1.33-2.96-2.96-2.96-1.54,0-2.81,1.18-2.95,2.68l-25.5-.31c-.11-1.54-1.39-2.75-2.96-2.75s-2.96,1.33-2.96,2.96c0,.42.09.82.25,1.18l-24.18,13.03c-.7-1.12-1.94-1.86-3.36-1.86-.57,0-1.12.12-1.61.34l-6.59-13.49,7.44-15.23c.49.2,1.02.19,1.49,0l.44-.24c.19-.13.36-.3.49-.5.63-.92.39-2.18-.53-2.8-.88-.6-2.07-.41-2.72.41l-21.74-14.83h0s0,0,0,0h0s.01-.02.01-.02h0s0,0,0,0c.04-.07.07-.13.1-.2v-.02s.01-.01.01-.01v-.03s.01,0,.01,0v-.04s.01,0,.01,0c.09-.27.13-.55.11-.85h0s0-.02,0-.02v-.02s0-.02,0-.02h0s0-.02,0-.02v-.02s0-.02,0-.02v-.02s0-.02,0-.02c0-.04-.02-.09-.02-.13h0s0-.01,0-.01h0s0,0,0,0h0s0-.01,0-.01h0s0-.01,0-.01h0s0-.01,0-.01h0s0,0,0,0h0s0-.01,0-.01h0s0-.01,0-.01h0s0-.01,0-.01h0s0,0,0,0h0s0-.01,0-.01h0s0-.01,0-.01h0s0-.01,0-.01h0s0,0,0,0h0s0-.01,0-.01h0s0-.01,0-.01h0c-.03-.09-.06-.16-.1-.24-.02-.04-.03-.07-.05-.1-.15-.27-.36-.5-.62-.69-.12-.08-.22-.13-.3-.16-.6-.28-1.34-.28-1.98.16-.18.12-.3.25-.44.41L4.75,3.41c.27-.46.36-1.03.2-1.58C4.64.77,3.52.15,2.45.46c-1.06.31-1.68,1.43-1.37,2.5.3,1.02,1.34,1.63,2.36,1.4l7.74,26.47-6.58,4.51c-.58-.73-1.59-.97-2.46-.56-1.01.49-1.41,1.69-.93,2.7.47.96,1.59,1.37,2.57.99l7.42,15.23-7.42,15.23c-.98-.39-2.1.02-2.57.99-.48,1-.08,2.2.93,2.7.87.41,1.89.17,2.46-.56l6.58,4.51-7.74,26.47c-1.02-.23-2.06.39-2.36,1.4-.32,1.07.31,2.19,1.37,2.5,1.07.32,2.19-.31,2.5-1.37.16-.55.07-1.12-.2-1.58l21.67-14.83c.57.72,1.57.97,2.42.58h0s.04-.02.04-.02h0s.04-.02.04-.02l.03-.02h0c.94-.52,1.32-1.67.82-2.7,0-.02-.02-.04-.03-.06v-.03s20.12-13.74,20.12-13.74c.72.98,1.88,1.61,3.18,1.61,2.18,0,3.95-1.77,3.95-3.95,0-.59-.13-1.15-.36-1.65l24.18-13.03c.53.81,1.44,1.35,2.48,1.35.67,0,1.28-.22,1.77-.59l11.39,12.86c-.51.53-.82,1.25-.82,2.05,0,1.64,1.33,2.96,2.96,2.96s2.96-1.33,2.96-2.96c0-.1,0-.2-.01-.3l40.76-7.55c.18,1.46,1.43,2.6,2.94,2.6ZM216.35,18.53l-.03-.05,21.67-14.83c.16.2.35.36.57.49l-11.54,23.69-10.7-7.32c.34-.67.4-1.3.03-1.99Z"/>
    </clipPath>
    <linearGradient id="linear-gradient" x1=".1" y1="107.5" x2=".9" y2="107.5" gradientTransform="translate(.9995 -11408.0928) scale(240.5838 106.6212)" gradientUnits="userSpaceOnUse">
      <stop offset="0" stop-color="#951a42"/>
      <stop offset="1" stop-color="#2a3774"/>
    </linearGradient>
  </defs>
  <g class="cls-5">
    <rect class="cls-1" x=".73" y=".15" width="241.13" height="107.09"/>
  </g>
  <path class="cls-2" d="M59.1,66.09l-1.24-3.22-3.12-8.3c-.94-2.52-1.65-4.61-2.15-6.25-.41,1.95-.96,3.87-1.65,5.77l-3.28,8.79-1.16,3.22-3.25,9.08h-4.2l11.49-29.94h4.36l12.19,29.94h-4.51l-3.46-9.08Z"/>
  <path class="cls-2" d="M177.02,66.09l-1.24-3.22-3.12-8.3c-.94-2.52-1.65-4.61-2.15-6.25-.41,1.95-.96,3.87-1.65,5.77l-3.28,8.79-1.16,3.22-3.25,9.08h-4.2l11.49-29.94h4.36l12.19,29.94h-4.51l-3.46-9.08Z"/>
  <rect class="cls-2" x="187.68" y="45.22" width="3.68" height="29.95"/>
  <path class="cls-2" d="M68.41,67.29l2.79-.25.27-.02.03.27c.06.55.17,1.04.32,1.49.15.44.33.83.56,1.17h0c.23.34.52.64.87.91.36.28.78.53,1.27.74h0c.49.21,1.01.37,1.57.48.55.11,1.14.16,1.76.16.55,0,1.07-.04,1.55-.12.48-.08.93-.2,1.34-.37.41-.16.77-.35,1.07-.57.29-.21.54-.46.73-.73h0c.2-.27.34-.56.44-.85.1-.29.14-.59.14-.91s-.05-.62-.14-.9c-.09-.27-.23-.53-.41-.77h0c-.18-.23-.43-.45-.74-.66-.32-.21-.71-.4-1.16-.57-.3-.11-.78-.26-1.44-.44-.66-.18-1.51-.4-2.53-.64-1.04-.25-1.93-.49-2.65-.73-.74-.24-1.32-.47-1.75-.7h0c-.55-.29-1.04-.62-1.45-.98-.42-.37-.77-.77-1.04-1.21h0c-.28-.44-.49-.9-.63-1.39-.14-.49-.21-1.01-.21-1.55,0-.59.09-1.17.26-1.73.17-.56.42-1.1.76-1.61h0c.34-.52.75-.98,1.25-1.37.49-.39,1.06-.72,1.7-.99h0c.63-.26,1.3-.46,2.01-.59.71-.13,1.45-.2,2.22-.2h.27v.27s.13,2.63.13,2.63v.3s-.28,0-.28,0c-.88,0-1.63.08-2.26.24-.62.15-1.11.38-1.49.69-.38.3-.66.64-.85,1-.18.36-.28.74-.28,1.16,0,.36.07.69.19.99.13.29.32.56.58.79.26.24.75.48,1.47.74.74.26,1.7.53,2.89.8,1.21.27,2.23.53,3.07.77h0c.84.24,1.49.47,1.96.68h0c.67.31,1.26.66,1.76,1.06.51.4.92.84,1.25,1.33h0c.33.48.57,1.01.74,1.56.16.56.24,1.15.24,1.78s-.09,1.23-.27,1.82c-.18.59-.45,1.16-.8,1.71-.36.55-.79,1.04-1.3,1.47-.51.42-1.09.79-1.76,1.09-.66.3-1.36.53-2.1.68h0c-.74.15-1.52.23-2.34.23-1.03,0-1.97-.08-2.84-.23h0c-.87-.15-1.66-.38-2.37-.69-.71-.31-1.35-.69-1.9-1.15-.56-.46-1.04-1-1.45-1.62h0c-.41-.61-.72-1.27-.93-1.97-.21-.7-.33-1.43-.35-2.21v-.26s.26-.02.26-.02Z"/>
  <polygon class="cls-2" points="96.86 66.37 96.86 55.25 89.74 55.25 89.45 55.25 89.45 54.97 89.45 52.33 89.45 52.05 89.74 52.05 107.52 52.05 107.81 52.05 107.81 52.33 107.81 54.97 107.81 55.25 107.52 55.25 100.4 55.25 100.4 66.37 100.4 66.65 100.12 66.65 97.14 66.65 96.86 66.65 96.86 66.37"/>
  <path class="cls-2" d="M111.78,61.78l2.96.19h6.38c.67,0,1.26-.03,1.78-.1.51-.07.94-.17,1.31-.3h0c.35-.13.66-.3.93-.5.26-.21.49-.45.66-.73h0c.18-.29.32-.59.41-.89.09-.31.14-.63.14-.97,0-.49-.09-.94-.26-1.34-.17-.4-.44-.76-.79-1.07h0c-.35-.31-.81-.55-1.37-.71-.58-.16-1.27-.24-2.08-.24h-.27v-.27s-.14-2.48-.14-2.48v-.3s.28,0,.28,0c1.01,0,1.9.05,2.68.16.78.1,1.45.26,1.99.47.55.21,1.05.51,1.49.88.44.38.82.83,1.15,1.37.32.53.57,1.09.73,1.68.16.59.24,1.21.24,1.85,0,.83-.14,1.6-.41,2.3-.27.71-.68,1.35-1.22,1.92-.54.57-1.23,1.04-2.06,1.4-.6.26-1.28.47-2.04.62.1.06.2.12.3.18.32.2.58.4.8.59h0c.44.41.88.87,1.29,1.38.42.51.82,1.07,1.21,1.67h0s3.88,6.12,3.88,6.12l.28.44h-4.38l-.08-.13-2.97-4.67h0c-.42-.66-.81-1.24-1.16-1.75-.36-.52-.68-.97-.97-1.33h0c-.28-.35-.53-.64-.78-.88-.24-.23-.46-.42-.66-.55h0c-.2-.13-.41-.24-.63-.34-.21-.09-.42-.17-.63-.22-.16-.03-.37-.06-.63-.07-.26-.02-.58-.03-.96-.03h-3.16v9.97h-3.55v-13.32l.3.02Z"/>
  <path class="cls-2" d="M137.9,63.91c0,1.32.18,2.5.53,3.53.35,1.03.87,1.91,1.57,2.66.7.75,1.49,1.31,2.36,1.68.88.37,1.84.56,2.9.56s2.06-.19,2.95-.56c.88-.38,1.67-.94,2.37-1.7.69-.75,1.21-1.67,1.56-2.74.35-1.08.53-2.33.53-3.75,0-.9-.08-1.73-.23-2.51-.15-.77-.37-1.49-.67-2.15-.3-.66-.66-1.24-1.1-1.74-.43-.51-.93-.94-1.5-1.3-.57-.36-1.18-.63-1.82-.81-.64-.18-1.32-.27-2.03-.27-1.02,0-1.96.17-2.83.52-.87.35-1.67.87-2.4,1.57-.72.69-1.27,1.61-1.63,2.77-.37,1.17-.56,2.59-.56,4.25M134.26,63.86c0-1.89.26-3.58.77-5.07.51-1.5,1.29-2.79,2.32-3.87,1.03-1.08,2.21-1.89,3.54-2.44,1.33-.54,2.8-.81,4.42-.81,1.06,0,2.07.13,3.03.38.96.25,1.87.64,2.72,1.14.86.51,1.61,1.12,2.26,1.83.65.71,1.2,1.52,1.65,2.43.45.91.78,1.87,1.01,2.9.22,1.02.33,2.1.33,3.24s-.12,2.26-.35,3.3c-.24,1.04-.59,2.02-1.06,2.94-.47.92-1.05,1.74-1.71,2.44-.67.7-1.44,1.29-2.31,1.76-.87.47-1.76.83-2.7,1.07-.93.24-1.9.36-2.9.36-1.08,0-2.11-.13-3.08-.39-.97-.26-1.88-.66-2.74-1.18-.85-.52-1.61-1.15-2.26-1.86-.65-.72-1.19-1.53-1.63-2.43h0c-.44-.9-.77-1.83-.99-2.78-.22-.95-.33-1.94-.33-2.94Z"/>
  <polygon class="cls-3" points="189.52 29.36 191.01 34.96 196.62 36.45 191.01 37.94 189.52 43.55 188.03 37.94 182.43 36.45 188.03 34.96 189.52 29.36"/>
</svg>