<?xml version="1.0" encoding="UTF-8"?>
<svg id="Layer_1" xmlns="http://www.w3.org/2000/svg" xmlns:xlink="http://www.w3.org/1999/xlink" version="1.1" viewBox="0 0 270.81 79.26">
  <!-- Generator: Adobe Illustrator 30.6.0, SVG Export Plug-In . SVG Version: 2.1.4 Build 109)  -->
  <defs>
    <style>
      .st0 {
        fill: #fff;
      }

      .st1 {
        fill: url(#linear-gradient);
        fill-rule: evenodd;
      }
    </style>
    <linearGradient id="linear-gradient" x1="2093.6" y1="-4325.05" x2="5157.6" y2="-4325.05" gradientTransform="translate(-155.93 -318.84) scale(.08 -.08)" gradientUnits="userSpaceOnUse">
      <stop offset="0" stop-color="#a53692"/>
      <stop offset="1" stop-color="#3e4095"/>
    </linearGradient>
  </defs>
  <g id="Capa_x5F_1">
    <g id="_184182536">
      <path class="st1" d="M18.62,67.1l-.25.41c-.66,1.08-1.08,2.32-1.08,3.64s.41,2.56,1.08,3.64l.25.41c1.24,1.65,3.23,2.73,5.46,2.73,3.72,0,6.78-3.06,6.78-6.78,0-.99-.25-1.99-.66-2.81l41.54-22.34c.91,1.41,2.48,2.32,4.3,2.32,1.16,0,2.23-.41,3.06-.99l19.61,22.09c-.91.91-1.41,2.15-1.41,3.48,0,2.81,2.32,5.13,5.13,5.13s5.13-2.32,5.13-5.13v-.5l70-12.99c.33,2.48,2.48,4.47,5.05,4.47,2.4,0,4.39-1.65,4.96-3.89l32.6,9.68c-.08.5-.17.99-.17,1.49,0,3.72,3.06,6.78,6.78,6.78s6.78-3.06,6.78-6.78c0-2.4-1.24-4.55-3.14-5.79l26.23-48.49,1.99,7.45,2.56-9.6,9.6-2.56-9.6-2.56-2.56-9.6-2.56,9.6-9.6,2.56,9.6,2.56.25.99-26.73,49.23c-.83-.41-1.82-.66-2.9-.66-2.9,0-5.38,1.82-6.37,4.47l-32.68-9.76v-.33c0-2.81-2.32-5.13-5.13-5.13-1.99,0-3.64,1.08-4.47,2.73l-42.94-11.67c.08-.33.08-.58.08-.91,0-2.81-2.32-5.13-5.13-5.13-2.65,0-4.8,1.99-5.05,4.63l-43.77-.5c-.17-2.65-2.4-4.72-5.05-4.72-2.81,0-5.13,2.32-5.13,5.13,0,.74.17,1.41.41,2.07l-41.54,22.34c-1.16-1.9-3.31-3.23-5.79-3.23-.99,0-1.9.25-2.73.58l-.41.25c-.91.5-1.65,1.16-2.23,1.99h-.17ZM177.64,57.09c-.17.41-.25.91-.25,1.41l-70.16,12.99c-.25-.74-.58-1.49-1.08-2.07l20.6-21.68c.91.66,1.99,1.16,3.23,1.16,2.23,0,4.05-1.41,4.8-3.39l42.86,11.58ZM79.76,46.67c.74-.83,1.24-1.82,1.41-3.06l43.77.5c.08,1.16.58,2.23,1.24,2.98l-20.6,21.68c-.91-.66-1.99-1.16-3.23-1.16-1.16,0-2.23.41-3.06.99l-19.61-22.09.08.17Z"/>
      <path class="st0" d="M34.42,63.05l-2.15-5.54-5.38-14.23c-1.65-4.3-2.81-7.94-3.72-10.76-.74,3.39-1.65,6.62-2.81,9.93l-5.63,15.06-1.99,5.54-5.54,15.56H0L19.69,27.14h7.45l20.93,51.46h-7.78l-5.96-15.56h.08Z"/>
      <path class="st0" d="M236.97,63.05l-2.15-5.54-5.38-14.23c-1.65-4.3-2.81-7.94-3.72-10.76-.74,3.39-1.65,6.62-2.81,9.93l-5.63,15.06-1.99,5.54-5.54,15.56h-7.2l19.69-51.46h7.45l20.93,51.46h-7.78l-5.96-15.56h.08Z"/>
      <polygon class="st0" points="255.25 78.69 255.25 27.22 261.62 27.22 261.62 78.69 255.25 78.69"/>
      <path class="st0" d="M50.47,65.12l4.8-.41.5-.08.08.5c.08.91.33,1.82.58,2.56s.58,1.41.99,1.99h0c.41.58.91,1.08,1.49,1.57s1.32.91,2.15,1.24h0c.83.33,1.74.66,2.73.83.91.17,1.99.25,3.06.25.91,0,1.82-.08,2.65-.25s1.57-.33,2.32-.66c.74-.25,1.32-.58,1.82-.99.5-.33.91-.74,1.24-1.24h0c.33-.5.58-.99.74-1.49s.25-.99.25-1.57-.08-1.08-.25-1.57-.41-.91-.74-1.32h0c-.33-.41-.74-.74-1.24-1.16-.58-.33-1.24-.66-1.99-.99-.5-.17-1.32-.41-2.48-.74s-2.56-.66-4.3-1.08c-1.82-.41-3.31-.83-4.55-1.24s-2.23-.83-2.98-1.16h0c-.91-.5-1.82-1.08-2.48-1.65-.74-.66-1.32-1.32-1.82-2.07h0c-.5-.74-.83-1.57-1.08-2.4s-.33-1.74-.33-2.65c0-.99.17-1.99.41-2.98.33-.99.74-1.9,1.32-2.73h0c.58-.91,1.32-1.65,2.15-2.32s1.82-1.24,2.9-1.65h0c1.08-.41,2.23-.83,3.48-.99,1.24-.25,2.48-.33,3.81-.33h.5v.5l.17,4.55v.5h-.5c-1.49,0-2.81.17-3.89.41s-1.9.66-2.56,1.16-1.16,1.08-1.49,1.74c-.33.58-.5,1.24-.5,1.99,0,.66.08,1.16.33,1.74.25.5.58.99.99,1.32.41.41,1.32.83,2.48,1.24,1.24.41,2.9.91,4.96,1.41s3.81.91,5.3,1.32h0c1.41.41,2.56.83,3.39,1.16h0c1.16.5,2.15,1.16,2.98,1.82s1.57,1.41,2.15,2.32h0c.58.83.99,1.74,1.24,2.65.25.99.41,1.99.41,3.06s-.17,2.15-.5,3.14-.74,1.99-1.41,2.9c-.58.91-1.32,1.82-2.23,2.56s-1.9,1.32-3.06,1.9c-1.16.5-2.32.91-3.64,1.16h0c-1.24.25-2.65.41-4.05.41-1.74,0-3.39-.17-4.88-.41h0c-1.49-.25-2.9-.66-4.05-1.16-1.24-.5-2.32-1.16-3.31-1.99s-1.82-1.74-2.48-2.81h0c-.66-1.08-1.24-2.15-1.57-3.39-.33-1.16-.58-2.48-.58-3.81v-.41l.5-.08.08-.08Z"/>
      <polygon class="st0" points="99.04 64.12 99.04 45.01 86.79 45.01 86.3 45.01 86.3 44.51 86.3 40.05 86.3 39.55 86.79 39.55 117.33 39.55 117.82 39.55 117.82 40.05 117.82 44.51 117.82 45.01 117.33 45.01 105.08 45.01 105.08 64.12 105.08 64.62 104.67 64.62 99.54 64.62 99.04 64.62 99.04 64.12"/>
      <path class="st0" d="M124.94,55.68l5.05.33h10.92c1.16,0,2.15-.08,3.06-.17.83-.08,1.65-.33,2.23-.5h0c.58-.25,1.16-.5,1.57-.83s.83-.74,1.16-1.24h0c.33-.5.58-.99.74-1.57.17-.5.25-1.08.25-1.65,0-.83-.17-1.65-.41-2.32-.33-.66-.74-1.32-1.32-1.82h0c-.58-.58-1.41-.91-2.4-1.24-.99-.25-2.15-.41-3.56-.41h-.5v-.5l-.25-4.22v-.5h.5c1.74,0,3.23.08,4.63.25,1.32.17,2.48.41,3.39.83.91.33,1.82.91,2.56,1.49.74.66,1.41,1.41,1.99,2.32s.99,1.9,1.24,2.9.41,2.07.41,3.14c0,1.41-.25,2.73-.66,3.97-.5,1.24-1.16,2.32-2.07,3.31s-2.07,1.82-3.56,2.4c-1.08.41-2.23.83-3.48,1.08.17.08.33.17.5.33.58.33.99.66,1.41.99h0c.74.66,1.49,1.49,2.23,2.4s1.41,1.82,2.07,2.9h0l6.7,10.51.5.74h-7.53l-.17-.25-5.13-8.03h0c-.74-1.16-1.41-2.15-1.99-2.98-.66-.91-1.16-1.65-1.65-2.32h0c-.5-.58-.91-1.08-1.32-1.49s-.83-.74-1.16-.91h0c-.33-.25-.74-.41-1.08-.58s-.74-.25-1.08-.41c-.25-.08-.66-.08-1.08-.17-.41,0-.99-.08-1.65-.08h-5.38v17.13h-6.12v-22.84h.5-.08Z"/>
      <path class="st0" d="M163.49,59.24c0-3.23.41-6.12,1.32-8.69s2.23-4.8,3.97-6.62,3.81-3.23,6.04-4.22c2.32-.91,4.8-1.41,7.61-1.41,1.82,0,3.56.25,5.21.66s3.23,1.08,4.72,1.99,2.73,1.9,3.89,3.14,2.07,2.65,2.81,4.14c.74,1.57,1.32,3.23,1.74,4.96s.58,3.64.58,5.54-.17,3.89-.58,5.63c-.41,1.82-.99,3.48-1.82,5.05s-1.82,2.98-2.98,4.22-2.48,2.23-3.97,3.06-3.06,1.41-4.63,1.82-3.23.58-4.96.58-3.64-.25-5.3-.66-3.23-1.16-4.72-1.99c-1.49-.91-2.73-1.99-3.89-3.23-1.08-1.24-2.07-2.65-2.81-4.14h0c-.74-1.57-1.32-3.14-1.65-4.8-.41-1.65-.58-3.31-.58-5.05ZM169.78,59.32c0,2.23.33,4.3.91,6.04s1.49,3.31,2.73,4.55c1.16,1.24,2.56,2.23,4.05,2.9s3.14.99,4.96.99,3.56-.33,5.05-.99,2.9-1.65,4.05-2.9c1.16-1.32,2.07-2.9,2.65-4.72s.91-3.97.91-6.45c0-1.57-.17-2.98-.41-4.3s-.66-2.56-1.16-3.72-1.16-2.15-1.9-2.98-1.57-1.57-2.56-2.23c-.99-.58-1.99-1.08-3.14-1.41-1.08-.33-2.23-.5-3.48-.5-1.74,0-3.39.33-4.88.91s-2.9,1.49-4.14,2.65-2.15,2.73-2.81,4.72-.99,4.47-.99,7.28l.17.17Z"/>
    </g>
  </g>
</svg>