<svg id="Layer_1" data-name="Layer 1" xmlns="http://www.w3.org/2000/svg" xmlns:xlink="http://www.w3.org/1999/xlink" viewBox="0 0 295.13 126.49"><defs><style>.cls-1{fill:url(#New_Gradient_Swatch_2);}.cls-2{fill:#fff;}</style><linearGradient id="New_Gradient_Swatch_2" x1="-6949.3" y1="-2886.83" x2="-7244.62" y2="-2886.83" gradientTransform="translate(7244.64 2953.15)" gradientUnits="userSpaceOnUse"><stop offset="0" stop-color="#912846"/><stop offset="1" stop-color="#283266"/></linearGradient></defs><title>CfA_Logo_Vertical_RGB</title><path d="M11.09.46,11,2.2a25.18,25.18,0,0,0-4.28-.49C3.3,1.71,1.92,3,1.92,6.48v9.37c0,3.25,1.38,4.7,4.87,4.7a20.9,20.9,0,0,0,4.24-.5l.06,1.78a24.24,24.24,0,0,1-4.34.49C1.82,22.32,0,20.12,0,15.71V6.64C0,2.07,1.82,0,6.75,0A27.3,27.3,0,0,1,11.09.46Z"/><path d="M33.13,2.14H24.32v8h8.15v1.7H24.32v8.36h8.81v1.74H22.41V.39H33.13Z"/><path d="M46.65,2.7V21.93H44.78V.39h3l8.88,19.14V.39h1.87V21.93H55.66Z"/><path d="M83.81,2.14H77.34V21.93H75.43V2.14H69V.39H83.81Z"/><path d="M104.93,2.14H96.12v8h8.15v1.7H96.12v8.36h8.81v1.74H94.21V.39h10.72Z"/><path d="M129.37,5.79v.79a5.44,5.44,0,0,1-4.05,5.58l5.56,9.77h-2.14l-5.29-9.37a28.35,28.35,0,0,1-5,0v9.4h-1.91V.17C118.52.1,120.26,0,122.07,0,127.16,0,129.37,2.2,129.37,5.79Zm-10.88-4v9.11c1.44.1,2.66.16,3.61.16,3.75,0,5.36-1.57,5.36-4.53V5.92c0-2.83-1.64-4.24-5.46-4.24C121.28,1.68,119.41,1.74,118.49,1.77Z"/><path d="M165.32,2.14h-8.81v8h6.67v1.7h-6.67v10.1H154.6V.39h10.72Z"/><path d="M188.93,7.07v8.18c0,4.57-2.1,7.07-6.94,7.07s-6.93-2.5-6.93-7.07V7.07C175.06,2.63,177,0,182,0S188.93,2.63,188.93,7.07Zm-12-.33v8.81c0,3.39,1.68,5.06,5,5.06s5-1.67,5-5.06V6.77c0-3.35-1.64-5.06-5-5.06S177,3.39,177,6.74Z"/><path d="M213.53,5.79v.79a5.44,5.44,0,0,1-4,5.58L215,21.93h-2.13l-5.29-9.37a28.46,28.46,0,0,1-5,0v9.4h-1.91V.17c1.94-.07,3.69-.17,5.5-.17C211.33,0,213.53,2.2,213.53,5.79Zm-10.88-4v9.11c1.45.1,2.67.16,3.62.16,3.75,0,5.36-1.57,5.36-4.53V5.92c0-2.83-1.65-4.24-5.46-4.24C205.45,1.68,203.57,1.74,202.65,1.77Z"/><path d="M0,112.51H1.59v5.95H8.8v-5.95h1.57v13.56H8.8v-6.18H1.59v6.18H0Z"/><path d="M18.89,121.67l-1.63,4.4H15.67l5.08-13.56h1.58l5.08,13.56H25.82l-1.63-4.4Zm2.65-7.44-2.17,6.08h4.36Z"/><path d="M32.73,112.51h3.45c2.77,0,4.22,1.4,4.22,3.76A3.56,3.56,0,0,1,38,119.85l3.37,6.22H39.66l-3-5.89H34.3v5.89H32.73Zm3.45,6.29a2.25,2.25,0,0,0,2.57-2.51c0-1.44-.75-2.38-2.67-2.38H34.3v4.89Z"/><path d="M50.28,126.07l-5.15-13.56h1.72l4.26,11.7,4.28-11.7h1.72L52,126.07Z"/><path d="M62.92,121.67l-1.62,4.4H59.71l5.07-13.56h1.59l5.07,13.56H69.86l-1.63-4.4Zm2.66-7.44-2.17,6.08h4.35Z"/><path d="M76.77,112.51h3.45c2.76,0,4.22,1.4,4.22,3.76a3.57,3.57,0,0,1-2.37,3.58l3.37,6.22H83.7l-3.06-5.89h-2.3v5.89H76.77Zm3.45,6.29a2.25,2.25,0,0,0,2.57-2.51c0-1.44-.75-2.38-2.67-2.38H78.34v4.89Z"/><path d="M90.9,112.51h2.79c4.63,0,7.26,2.54,7.26,6.78,0,4.49-2.73,6.78-7.26,6.78H90.9ZM94,124.67c3.26,0,5.35-1.84,5.35-5.38s-2.09-5.36-5.35-5.36H92.47v10.74Z"/><path d="M123.09,124.81a5.55,5.55,0,0,1-4,1.51c-3,0-4.71-1.78-4.71-4a4.18,4.18,0,0,1,2.38-3.66,4.23,4.23,0,0,1-1.47-3,3.42,3.42,0,0,1,3.7-3.39c2.36,0,3.78,1.39,3.78,3.41,0,1.68-1.18,2.82-3,3.87l3.21,3.1a5.53,5.53,0,0,0,.64-3h1.47a7.07,7.07,0,0,1-1,4.12l1.41,1.42-1.11,1.06Zm-1-1.07-4.24-4.08a2.81,2.81,0,0,0-1.86,2.57c0,1.71,1.45,2.69,3.18,2.69A4.17,4.17,0,0,0,122.06,123.74Zm-3.27-5.07c1.41-.72,2.57-1.71,2.57-3a2.28,2.28,0,0,0-4.56,0C116.8,116.93,117.76,117.8,118.79,118.67Z"/><path d="M139.47,122.75a2.92,2.92,0,0,0,3,2.11,2.21,2.21,0,0,0,2.46-2.24c0-3.39-6.35-2.52-6.35-6.89,0-1.94,1.47-3.47,3.87-3.47a4,4,0,0,1,3.84,2.59l-1.32.55a2.72,2.72,0,0,0-2.53-1.71,2,2,0,0,0-2.29,2c0,3.09,6.37,2.46,6.37,6.79a3.78,3.78,0,0,1-4.1,3.8,4.2,4.2,0,0,1-4.24-3Z"/><path d="M159.2,123.06l4.88-10.55h2v13.56h-1.51V114.78l-4.59,10h-1.55l-4.59-10v11.29h-1.51V112.51h2Z"/><path d="M172.68,112.51h1.57v13.56h-1.57Z"/><path d="M183.39,113.94h-3.66v-1.43h8.87v1.43H185v12.13h-1.57Z"/><path d="M194.29,112.51h1.57v5.95h7.21v-5.95h1.56v13.56h-1.56v-6.18h-7.21v6.18h-1.57Z"/><path d="M211.7,122.75a2.92,2.92,0,0,0,3,2.11,2.21,2.21,0,0,0,2.46-2.24c0-3.39-6.35-2.52-6.35-6.89,0-1.94,1.47-3.47,3.88-3.47a3.94,3.94,0,0,1,3.83,2.59l-1.32.55a2.72,2.72,0,0,0-2.53-1.71,2,2,0,0,0-2.29,2c0,3.09,6.37,2.46,6.37,6.79a3.78,3.78,0,0,1-4.1,3.8,4.2,4.2,0,0,1-4.24-3Z"/><path d="M230.7,112.26a7,7,0,1,1-6.91,7A6.85,6.85,0,0,1,230.7,112.26Zm0,12.59a5.57,5.57,0,1,0-5.29-5.56A5.29,5.29,0,0,0,230.7,124.85Z"/><path d="M243.42,112.51H245l7.47,11.08V112.51H254v13.56h-1.55L245,115v11h-1.57Z"/><path d="M260.62,112.51h1.57v13.56h-1.57Z"/><path d="M270.71,121.67l-1.63,4.4h-1.59l5.08-13.56h1.58l5.08,13.56h-1.59l-1.63-4.4Zm2.65-7.44-2.17,6.08h4.36Z"/><path d="M284.53,112.51h1.57l7.48,11.08V112.51h1.55v13.56h-1.55l-7.48-11v11h-1.57Z"/><rect class="cls-1" x="0.01" y="36.71" width="295.32" height="59.21" transform="translate(295.35 132.64) rotate(-180)"/><path class="cls-2" d="M34.77,76.77H30.56L29.4,72.26H22.53l-1.15,4.51H17.33l6.38-21.55h4.67ZM23.32,68.91h5.29L26,58.51Z"/><path class="cls-2" d="M53.56,55.35l-.06,3.59a33,33,0,0,0-4.84-.56c-2.07,0-2.83.82-2.83,2.3v.69c0,1.19.37,1.65,2.08,2.21l2.89,1c3.06,1,4.21,2.57,4.21,5.89v.63c0,3.94-2,6.12-7.5,6.12a30,30,0,0,1-5.07-.69l0-3.66a24.26,24.26,0,0,0,4.93.73c2.77,0,3.69-.86,3.69-2.37v-.86c0-1.15-.46-1.74-1.75-2.17L46.16,67.1c-3.19-1-4.28-2.47-4.28-5.86v-.33c0-3.91,2-6.08,6.68-6.08A34.27,34.27,0,0,1,53.56,55.35Z"/><path class="cls-2" d="M78.28,58.84H72.36V76.77H68.44V58.84H62.52V55.22H78.28Z"/><path class="cls-2" d="M101.25,60.88v.79a5.73,5.73,0,0,1-3.65,5.4l5.33,9.7H98.59l-4.67-8.68a17,17,0,0,1-2.53,0v8.72h-4V55c1.91-.07,4.47-.2,6-.2C99,54.83,101.25,57.2,101.25,60.88Zm-9.9-2.53v6.28a18.57,18.57,0,0,0,2.14.13c2.7,0,3.82-1.18,3.82-3.12v-.53c0-1.87-1.12-2.83-3.85-2.83C92.93,58.28,92,58.32,91.35,58.35Z"/><path class="cls-2" d="M125.74,62.1v7.8c0,4.53-2.2,7.27-7.43,7.27s-7.4-2.74-7.4-7.27V62.1c0-4.61,2.23-7.27,7.4-7.27S125.74,57.49,125.74,62.1Zm-10.92-.3v8.36c0,2.27,1.19,3.45,3.49,3.45s3.49-1.18,3.49-3.45V61.84c0-2.24-1.19-3.46-3.49-3.46S114.82,59.56,114.82,61.8Z"/><path class="cls-2" d="M149.74,61.11v.73c0,4.17-2.47,6.71-7.47,6.71a15.79,15.79,0,0,1-2.47-.23v8.45h-3.94V55c1.64-.07,3.78-.17,6-.2C147.27,54.79,149.74,57.26,149.74,61.11Zm-10-2.79v6.54a18.24,18.24,0,0,0,2.2.2c2.57,0,3.82-1.15,3.82-3.35v-.5c0-1.91-1.15-3-3.95-3C140.86,58.25,140.33,58.28,139.77,58.32Z"/><path class="cls-2" d="M173.5,76.77h-3.91V67.46h-6.78v9.31h-3.95V55.22h3.95v8.69h6.78V55.22h3.91Z"/><path class="cls-2" d="M192.33,69.34v7.43h-3.94V69.34l-6.22-14.12h4.44l3.78,10.3,3.82-10.3h4.34Z"/><path class="cls-2" d="M217.68,55.35l-.07,3.59a32.92,32.92,0,0,0-4.83-.56c-2.08,0-2.83.82-2.83,2.3v.69c0,1.19.36,1.65,2.07,2.21l2.89,1c3.06,1,4.22,2.57,4.22,5.89v.63c0,3.94-2,6.12-7.51,6.12a29.87,29.87,0,0,1-5.06-.69l0-3.66a24.36,24.36,0,0,0,4.93.73c2.77,0,3.69-.86,3.69-2.37v-.86c0-1.15-.46-1.74-1.74-2.17l-3.2-1.05c-3.19-1-4.27-2.47-4.27-5.86v-.33c0-3.91,2-6.08,6.68-6.08A34.55,34.55,0,0,1,217.68,55.35Z"/><path class="cls-2" d="M232.39,76.77h-3.94V55.22h3.94Z"/><path class="cls-2" d="M254.67,55.39l-.06,3.52a26.58,26.58,0,0,0-4.48-.53c-2.79,0-3.71.89-3.71,3.55V70c0,2.63,1,3.52,3.71,3.52a23.68,23.68,0,0,0,4.48-.59l.06,3.62a30.58,30.58,0,0,1-4.93.59c-5.4,0-7.27-2.31-7.27-6.88V61.71c0-4.64,1.94-6.88,7.27-6.88A33.06,33.06,0,0,1,254.67,55.39Z"/><path class="cls-2" d="M275.28,55.35l-.07,3.59a32.92,32.92,0,0,0-4.83-.56c-2.07,0-2.83.82-2.83,2.3v.69c0,1.19.36,1.65,2.07,2.21l2.9,1c3.05,1,4.21,2.57,4.21,5.89v.63c0,3.94-2,6.12-7.5,6.12a29.84,29.84,0,0,1-5.07-.69l0-3.66a24.34,24.34,0,0,0,4.94.73c2.76,0,3.68-.86,3.68-2.37v-.86c0-1.15-.46-1.74-1.74-2.17l-3.19-1.05c-3.19-1-4.28-2.47-4.28-5.86v-.33c0-3.91,2-6.08,6.68-6.08A34.41,34.41,0,0,1,275.28,55.35Z"/></svg>