<?xml version="1.0" encoding="UTF-8"?>
<svg id="Layer_1" data-name="Layer 1" xmlns="http://www.w3.org/2000/svg" xmlns:xlink="http://www.w3.org/1999/xlink" viewBox="0 0 265 95">
  <defs>
    <style>
      .cls-1 {
        fill: none;
      }

      .cls-2 {
        fill: #fff;
      }

      .cls-3 {
        clip-path: url(#clippath);
      }
    </style>
    <clipPath id="clippath">
      <rect class="cls-1" x=".01" width="264.98" height="95"/>
    </clipPath>
  </defs>
  <polyline class="cls-2" points=".16 8.38 3.75 4.25 .42 .44 2.84 .44 5.04 3.18 7.28 .44 9.4 .44 6.08 4.25 9.69 8.38 7.27 8.38 4.83 5.42 2.4 8.38 .16 8.38"/>
  <rect class="cls-2" x="17.5" y="4.82" width="3.06" height="1.23"/>
  <path class="cls-2" d="M29.33.44h4.76c1.75,0,3.06.56,3.06,2.13,0,1.39-.97,1.96-2.19,2.05v.02c1.81.07,1.96.89,2.05,2.36.03.66.12,1.07.24,1.38h-1.91c-.1-.23-.15-.79-.18-1.25-.07-1.56-.43-1.88-2.17-1.88h-1.88v3.14h-1.78V.44M31.11,4.01h2.31c1.05,0,1.88-.23,1.88-1.19s-.86-1.09-1.81-1.09h-2.39v2.28Z"/>
  <path class="cls-2" d="M49.38.44h2.24l4.06,7.94h-2.11l-.91-1.78h-4.57l-.84,1.78h-1.91L49.38.44M52.02,5.3l-1.65-3.46-1.65,3.46h3.3Z"/>
  <polyline class="cls-2" points="71.19 .44 67.36 5.36 67.36 8.38 65.58 8.38 65.58 5.36 61.72 .44 64.05 .44 66.56 3.84 69.08 .44 71.19 .44"/>
  <path class="cls-2" d="M95.09.23c2.93,0,4.63,1.4,4.63,4.18s-1.7,4.18-4.63,4.18-4.63-1.4-4.63-4.18,1.7-4.18,4.63-4.18M95.09,7.29c1.72,0,2.78-1.01,2.78-2.88s-1.06-2.88-2.78-2.88-2.79,1.01-2.79,2.88,1.07,2.88,2.79,2.88Z"/>
  <path class="cls-2" d="M108.64.44h4.68c1.56,0,2.95.38,2.95,2.02,0,1-.92,1.63-1.96,1.69v.07c1.04.09,2.37.51,2.37,2.02,0,.87-.62,2.13-3.18,2.13h-4.85V.44M110.43,3.67h2.54c.87,0,1.39-.27,1.39-.97,0-.86-.8-1.03-1.73-1.03h-2.2v2ZM110.43,7.15h2.46c1.08,0,1.87-.3,1.87-1.11,0-.91-.96-1.13-1.75-1.13h-2.59v2.25Z"/>
  <path class="cls-2" d="M126.87,5.89c.1.95.79,1.52,2.2,1.52s2.01-.64,2.01-1.21-.41-.84-1.29-.96l-1.64-.22c-2.1-.29-2.8-1.18-2.8-2.22,0-1.84,1.72-2.58,3.57-2.58,2.32,0,3.58.98,3.63,2.59h-1.79c-.06-1.04-.78-1.41-2.01-1.41-.74,0-1.55.36-1.55,1.09,0,.62.45.87,1.15.97l2.28.32c1.89.26,2.29,1.38,2.29,2.2,0,1.64-1.41,2.61-4.11,2.61-2.3,0-3.74-.99-3.74-2.7h1.78"/>
  <polyline class="cls-2" points="147.92 1.74 143.41 1.74 143.41 3.61 147.75 3.61 147.75 4.9 143.41 4.9 143.41 7.08 148.11 7.08 148.11 8.38 141.62 8.38 141.62 .44 147.92 .44 147.92 1.74"/>
  <path class="cls-2" d="M157.09.44h4.76c1.75,0,3.05.56,3.05,2.13,0,1.39-.97,1.96-2.19,2.05v.02c1.82.07,1.96.89,2.05,2.36.03.66.12,1.07.24,1.38h-1.91c-.1-.23-.16-.79-.18-1.25-.08-1.56-.43-1.88-2.17-1.88h-1.88v3.14h-1.78V.44M158.87,4.01h2.31c1.04,0,1.88-.23,1.88-1.19s-.86-1.09-1.8-1.09h-2.39v2.28Z"/>
  <polyline class="cls-2" points="174.94 .44 177.77 6.71 180.59 .44 182.44 .44 178.69 8.38 176.65 8.38 172.89 .44 174.94 .44"/>
  <path class="cls-2" d="M192.69.44h2.25l4.06,7.94h-2.11l-.91-1.78h-4.58l-.84,1.78h-1.91l4.05-7.94M195.34,5.3l-1.65-3.46-1.65,3.46h3.31Z"/>
  <polyline class="cls-2" points="213.48 .44 213.48 1.74 210.45 1.74 210.45 8.38 208.67 8.38 208.67 1.74 205.65 1.74 205.65 .44 213.48 .44"/>
  <path class="cls-2" d="M225.98.23c2.93,0,4.63,1.4,4.63,4.18s-1.7,4.18-4.63,4.18-4.63-1.4-4.63-4.18,1.71-4.18,4.63-4.18M225.98,7.29c1.73,0,2.79-1.01,2.79-2.88s-1.06-2.88-2.79-2.88-2.78,1.01-2.78,2.88,1.07,2.88,2.78,2.88Z"/>
  <path class="cls-2" d="M239.55.44h4.76c1.75,0,3.06.56,3.06,2.13,0,1.39-.97,1.96-2.19,2.05v.02c1.81.07,1.96.89,2.05,2.36.03.66.12,1.07.24,1.38h-1.91c-.1-.23-.16-.79-.18-1.25-.08-1.56-.43-1.88-2.17-1.88h-1.88v3.14h-1.78V.44M241.33,4.01h2.31c1.04,0,1.88-.23,1.88-1.19s-.86-1.09-1.8-1.09h-2.39v2.28Z"/>
  <polyline class="cls-2" points="264.56 .44 260.73 5.36 260.73 8.38 258.95 8.38 258.95 5.36 255.09 .44 257.42 .44 259.93 3.84 262.45 .44 264.56 .44"/>
  <g class="cls-3">
    <path class="cls-2" d="M49.88,22.46h-13.09l4.51,5.6h12.9l-4.31-5.6M134.56,22.46h-12.92v5.6h17l-4.09-5.6ZM178.74,28.06h.33l9.8,2.04v-4.01l13.89,3.38,22.14,22.45-21.45-18.71-.11-.1-14.48-3.02v1.16l13.95,2.92,21.97,19.17.05.03h0s-.04-.03-.04-.03l-21.39-16.05-14.53-2.65v1.05l14,2.51,21.14,15.86-.04.03-20.62-13.3-14.48-2.26v.97l14.04,2.17,20.27,13.08-.07.06-19.81-10.99-14.43-1.94v.91l14.07,1.87,19.42,10.78-.08.06-19.02-9.07-14.39-1.66v.84l14.09,1.61,18.6,8.88-.08.07-18.26-7.49-14.36-1.42v.78l14.12,1.39,17.82,7.31-.07.06-17.53-6.19-14.33-1.22v.72l14.14,1.19,17.08,6.03-.12.1-32.06,36.54h13.64l24.95-30.31,24.75,30.31h13.64l-31.57-36.54,29.72-33.81h-12.47l-23.13,27.45-23.97-28.27-24.3-6.87H0v1.33h178.98l23.74,6.71,22.18,26.16-21.37-21.68-.12-.12-24.66-6.01v5.71ZM115.73,22.46h-13.19l-4.36,5.6h12.9l4.64-5.6ZM0,22.46v5.6h10.13v-5.6H0Z"/>
    <rect class="cls-2" x=".01" y="38" width="10.12" height="2.59"/>
    <rect class="cls-2" x=".01" y="33.93" width="10.12" height="3.09"/>
    <rect class="cls-2" x=".01" y="41.5" width="10.12" height="2.16"/>
    <rect class="cls-2" x=".01" y="29.2" width="10.12" height="3.68"/>
    <rect class="cls-2" x=".01" y="44.5" width="10.12" height="1.8"/>
    <polyline class="cls-2" points="0 94 53.25 94 53.25 86.01 10.13 86.01 10.13 49.3 0 49.3 0 94"/>
    <rect class="cls-2" x=".01" y="47.08" width="10.12" height="1.49"/>
  </g>
  <polyline class="cls-2" points="83.36 47.08 82.2 48.58 94.37 48.58 95.59 47.08 83.36 47.08"/>
  <polyline class="cls-2" points="57.95 32.88 55.08 29.2 42.22 29.2 45.22 32.88 57.95 32.88"/>
  <polyline class="cls-2" points="56.8 47.08 58.01 48.58 70.18 48.58 69.02 47.08 56.8 47.08"/>
  <polyline class="cls-2" points="107.16 32.88 110.16 29.19 97.3 29.19 94.43 32.88 107.16 32.88"/>
  <polyline class="cls-2" points="85.38 44.5 83.97 46.3 96.22 46.3 97.69 44.5 85.38 44.5"/>
  <polyline class="cls-2" points="76.19 56.29 70.75 49.3 58.6 49.3 71.12 64.67 71.12 94 81.26 94 81.26 64.67 93.78 49.3 81.64 49.3 76.19 56.29"/>
  <polyline class="cls-2" points="67.01 44.5 54.69 44.5 56.16 46.3 68.41 46.3 67.01 44.5"/>
  <polyline class="cls-2" points="64.66 41.5 52.24 41.5 54 43.66 66.35 43.66 64.66 41.5"/>
  <polyline class="cls-2" points="61.94 38 49.4 38 51.5 40.59 63.96 40.59 61.94 38"/>
  <polyline class="cls-2" points="103.79 37.02 106.31 33.93 93.61 33.93 91.2 37.02 103.79 37.02"/>
  <polyline class="cls-2" points="58.77 33.93 46.08 33.93 48.6 37.02 61.18 37.02 58.77 33.93"/>
  <polyline class="cls-2" points="100.14 41.5 87.71 41.5 86.03 43.66 98.38 43.66 100.14 41.5"/>
  <polyline class="cls-2" points="102.98 38 90.44 38 88.42 40.59 100.88 40.59 102.98 38"/>
  <polyline class="cls-2" points="136.71 40.59 147.64 40.59 145.78 38 134.86 38 136.71 40.59"/>
  <rect class="cls-2" x="121.64" y="41.5" width="10.13" height="2.16"/>
  <polyline class="cls-2" points="141.38 47.08 142.44 48.58 153.37 48.58 152.3 47.08 141.38 47.08"/>
  <rect class="cls-2" x="121.64" y="47.08" width="10.13" height="1.49"/>
  <polyline class="cls-2" points="178.74 44.5 178.74 46.3 179.07 46.3 188.88 47.27 188.88 45.63 179.03 44.5 178.74 44.5"/>
  <rect class="cls-2" x="121.64" y="38" width="10.13" height="2.59"/>
  <polyline class="cls-2" points="178.74 38 178.74 40.59 179.07 40.59 188.88 41.9 188.88 39.52 179 38 178.74 38"/>
  <polyline class="cls-2" points="178.74 33.93 178.74 37.02 179.07 37.02 188.88 38.55 188.88 35.71 178.98 33.93 178.74 33.93"/>
  <polyline class="cls-2" points="121.64 37.02 131.77 37.02 131.77 33.97 131.97 33.97 134.16 37.02 145.07 37.02 142.85 33.93 121.64 33.93 121.64 37.02"/>
  <rect class="cls-2" x="121.64" y="49.3" width="10.13" height="44.7"/>
  <polyline class="cls-2" points="178.74 49.3 178.74 83.67 178.55 83.67 153.89 49.3 142.97 49.3 175.04 94 175.65 94 188.88 78.92 188.88 50.13 179.04 49.3 178.74 49.3"/>
  <polyline class="cls-2" points="142.1 32.88 139.46 29.19 121.64 29.19 121.64 32.88 142.1 32.88"/>
  <polyline class="cls-2" points="138.92 43.66 149.84 43.66 148.28 41.5 137.37 41.5 138.92 43.66"/>
  <polyline class="cls-2" points="178.74 41.5 178.74 43.66 179.07 43.66 188.88 44.79 188.88 42.81 179.02 41.5 178.74 41.5"/>
  <polyline class="cls-2" points="178.74 47.08 178.74 48.58 179.07 48.58 188.88 49.41 188.88 48.05 179.04 47.08 178.74 47.08"/>
  <polyline class="cls-2" points="178.74 29.19 178.74 32.88 179.07 32.88 188.88 34.66 188.88 31.26 178.96 29.19 178.74 29.19"/>
  <polyline class="cls-2" points="140.82 46.3 151.73 46.3 150.44 44.5 139.52 44.5 140.82 46.3"/>
  <rect class="cls-2" x="121.64" y="44.5" width="10.13" height="1.8"/>
</svg>