<svg xmlns="http://www.w3.org/2000/svg" viewBox="0 0 294.34 173.56"><defs><style>.a{font-size:50.22px;font-family:MinionPro-Regular, Minion Pro;}.a,.j{fill:#fff;}.b{letter-spacing:-0.01em;}.c{letter-spacing:-0.01em;}.d{letter-spacing:0.01em;}.e{letter-spacing:-0.01em;}.f{letter-spacing:0.01em;}.g{letter-spacing:-0.01em;}.h{letter-spacing:0em;}.i{letter-spacing:-0.01em;}.j{font-size:28.7px;font-family:MinionPro-It, Minion Pro;font-style:italic;}.k{letter-spacing:-0.01em;}.l{letter-spacing:-0.01em;}.m{letter-spacing:-0.02em;}.n{letter-spacing:-0.01em;}.o{letter-spacing:-0.01em;}.p{letter-spacing:-0.02em;}.q{letter-spacing:0em;}.r{letter-spacing:-0.01em;}.s{letter-spacing:-0.01em;}.t{letter-spacing:0em;}.u{letter-spacing:-0.01em;}.v{letter-spacing:0em;}.w{letter-spacing:0em;}.x{letter-spacing:0.02em;}.y{letter-spacing:0em;}.z{letter-spacing:-0.02em;}.aa{letter-spacing:0.02em;}.ab{fill:#ffcd00;}</style></defs><title>si_AOV_rgb_vertical_yellow-reversed</title><text class="a" transform="translate(20.57 130.65)"><tspan class="b">S</tspan><tspan x="23.5" y="0">m</tspan><tspan class="c" x="64.63" y="0">i</tspan><tspan class="d" x="77.48" y="0">t</tspan><tspan class="e" x="93.1" y="0">h</tspan><tspan class="f" x="119.52" y="0">s</tspan><tspan class="g" x="138.35" y="0">o</tspan><tspan x="163.35" y="0">n</tspan><tspan class="h" x="190.82" y="0">i</tspan><tspan class="i" x="204.43" y="0">a</tspan><tspan x="226.03" y="0">n</tspan></text><text class="j" transform="translate(0.52 163.23)"><tspan class="k">As</tspan><tspan class="l" x="28.15" y="0">t</tspan><tspan class="m" x="36.71" y="0">r</tspan><tspan class="n" x="46.67" y="0">o</tspan><tspan class="o" x="59.9" y="0">p</tspan><tspan class="p" x="73.56" y="0">h</tspan><tspan x="87.51" y="0">y</tspan><tspan class="o" x="100.19" y="0">s</tspan><tspan class="q" x="109.58" y="0">i</tspan><tspan class="r" x="117.3" y="0">c</tspan><tspan class="s" x="128.06" y="0">a</tspan><tspan x="141.81" y="0">l </tspan><tspan class="t" x="155.52" y="0">O</tspan><tspan class="u" x="175.96" y="0">b</tspan><tspan class="v" x="189.73" y="0">s</tspan><tspan class="w" x="199.49" y="0">e</tspan><tspan class="x" x="210.97" y="0">r</tspan><tspan class="y" x="222.05" y="0">v</tspan><tspan class="z" x="234.76" y="0">a</tspan><tspan class="k" x="248.19" y="0">to</tspan><tspan class="aa" x="269.92" y="0">r</tspan><tspan x="281" y="0">y</tspan></text><path class="ab" d="M334.58,313a9.75,9.75,0,0,0-8.38-5.25v0l20.16-4.16-20.14-4.23h0a16.24,16.24,0,0,1,10-3.71c4.43-.06,8.27-5.48,5.83-9.65,0,0-.74,6.55-9,4.35a9.75,9.75,0,0,0-9.64,2.21h0l11.31-17.2-17.23,11.25h0a16.27,16.27,0,0,1,4.45-9.71c3.09-3.17,2-9.72-2.69-10.95,0,0,4.1,5.15-3.3,9.44a9.76,9.76,0,0,0-5.25,8.38h0l-4.16-20.15-4.24,20.14h0a16.32,16.32,0,0,1-3.72-10c-.06-4.43-5.48-8.28-9.65-5.84,0,0,6.55.74,4.35,9a9.79,9.79,0,0,0,2.21,9.65h0l-17.2-11.31h0l9.16,14,2.09,3.19h0A16.35,16.35,0,0,1,279.8,288c-3.17-3.1-9.72-2-10.95,2.69,0,0,5.16-4.11,9.45,3.29a9.78,9.78,0,0,0,8.38,5.26h0l-20.15,4.16,20.13,4.23h0a16.27,16.27,0,0,1-10,3.72c-4.43.05-8.28,5.47-5.84,9.64,0,0,.74-6.55,9-4.35a9.76,9.76,0,0,0,9.64-2.21h0l-11.31,17.19,17.23-11.24a16.31,16.31,0,0,1-4.45,9.71c-3.09,3.17-2,9.72,2.69,10.95,0,0-4.11-5.15,3.29-9.44a9.8,9.8,0,0,0,5.26-8.39h0l4.16,20.15,4.23-20.14h0a16.31,16.31,0,0,1,3.72,10c.06,4.43,5.47,8.28,9.64,5.84,0,0-6.54-.74-4.34-9a9.8,9.8,0,0,0-2.21-9.65h0l17.19,11.31-5.93-9.1-5.31-8.13h0a16.25,16.25,0,0,1,9.7,4.45c3.18,3.09,9.73,2,10.95-2.7C344,316.24,338.87,320.35,334.58,313Z" transform="translate(-158.67 -263.53)"/></svg>