<svg xmlns="http://www.w3.org/2000/svg" viewBox="0 0 294.34 173.6"><defs><style>.a{font-size:50.22px;font-family:MinionPro-Regular, Minion Pro;}.a,.j{fill:#fff;}.b{letter-spacing:-0.01em;}.c{letter-spacing:-0.01em;}.d{letter-spacing:0.01em;}.e{letter-spacing:-0.01em;}.f{letter-spacing:0.01em;}.g{letter-spacing:-0.01em;}.h{letter-spacing:0em;}.i{letter-spacing:-0.01em;}.j{font-size:28.7px;font-family:MinionPro-It, Minion Pro;font-style:italic;}.k{letter-spacing:-0.01em;}.l{letter-spacing:-0.01em;}.m{letter-spacing:-0.02em;}.n{letter-spacing:-0.01em;}.o{letter-spacing:-0.01em;}.p{letter-spacing:-0.02em;}.q{letter-spacing:0em;}.r{letter-spacing:-0.01em;}.s{letter-spacing:-0.01em;}.t{letter-spacing:0em;}.u{letter-spacing:-0.01em;}.v{letter-spacing:0em;}.w{letter-spacing:0em;}.x{letter-spacing:0.02em;}.y{letter-spacing:0em;}.z{letter-spacing:-0.02em;}.aa{letter-spacing:0.02em;}.ab{fill:#159bd7;}.ac{fill:#ffcd00;}</style></defs><title>si_AOV_rgb_verical_color</title><text class="a" transform="translate(20.57 130.69)"><tspan class="b">S</tspan><tspan x="23.5" y="0">m</tspan><tspan class="c" x="64.63" y="0">i</tspan><tspan class="d" x="77.48" y="0">t</tspan><tspan class="e" x="93.1" y="0">h</tspan><tspan class="f" x="119.52" y="0">s</tspan><tspan class="g" x="138.35" y="0">o</tspan><tspan x="163.35" y="0">n</tspan><tspan class="h" x="190.82" y="0">i</tspan><tspan class="i" x="204.43" y="0">a</tspan><tspan x="226.03" y="0">n</tspan></text><text class="j" transform="translate(0.52 163.26)"><tspan class="k">As</tspan><tspan class="l" x="28.15" y="0">t</tspan><tspan class="m" x="36.71" y="0">r</tspan><tspan class="n" x="46.67" y="0">o</tspan><tspan class="o" x="59.9" y="0">p</tspan><tspan class="p" x="73.56" y="0">h</tspan><tspan x="87.51" y="0">y</tspan><tspan class="o" x="100.19" y="0">s</tspan><tspan class="q" x="109.58" y="0">i</tspan><tspan class="r" x="117.3" y="0">c</tspan><tspan class="s" x="128.06" y="0">a</tspan><tspan x="141.81" y="0">l </tspan><tspan class="t" x="155.52" y="0">O</tspan><tspan class="u" x="175.96" y="0">b</tspan><tspan class="v" x="189.73" y="0">s</tspan><tspan class="w" x="199.49" y="0">e</tspan><tspan class="x" x="210.97" y="0">r</tspan><tspan class="y" x="222.05" y="0">v</tspan><tspan class="z" x="234.76" y="0">a</tspan><tspan class="k" x="248.19" y="0">to</tspan><tspan class="aa" x="269.92" y="0">r</tspan><tspan x="281" y="0">y</tspan></text><circle class="ab" cx="147.77" cy="39.94" r="39.94"/><path class="ac" d="M330.52,311.58a8.38,8.38,0,0,0-7.17-4.5h0l17.25-3.56-17.23-3.62h0a14,14,0,0,1,8.56-3.18c3.79-.05,7.08-4.68,5-8.25,0,0-.64,5.6-7.71,3.72a8.35,8.35,0,0,0-8.25,1.89h0l9.68-14.71L315.89,289h0a14,14,0,0,1,3.8-8.31c2.65-2.71,1.7-8.32-2.3-9.37,0,0,3.51,4.41-2.82,8.08a8.39,8.39,0,0,0-4.5,7.17h0l-3.56-17.24-3.63,17.23h0A13.85,13.85,0,0,1,299.7,278c-.05-3.8-4.69-7.09-8.26-5,0,0,5.6.63,3.72,7.7a8.38,8.38,0,0,0,1.89,8.26h0l-14.71-9.68h0l7.84,12L292,294h0a14,14,0,0,1-8.3-3.81c-2.72-2.65-8.33-1.7-9.37,2.3,0,0,4.41-3.51,8.08,2.82a8.36,8.36,0,0,0,7.17,4.5h0l-17.25,3.56L289.52,307h0a14,14,0,0,1-8.57,3.18c-3.79.05-7.08,4.68-5,8.25,0,0,.64-5.6,7.71-3.72a8.36,8.36,0,0,0,8.25-1.89h0l-9.67,14.71L297,317.93a13.94,13.94,0,0,1-3.81,8.31c-2.64,2.71-1.69,8.32,2.31,9.37,0,0-3.52-4.41,2.82-8.08a8.37,8.37,0,0,0,4.49-7.18h0l3.56,17.24L310,320.37h0a13.88,13.88,0,0,1,3.18,8.56c.05,3.8,4.69,7.09,8.26,5,0,0-5.61-.63-3.72-7.7a8.38,8.38,0,0,0-1.9-8.26h0l14.71,9.68-5.08-7.79-4.54-7h0a14,14,0,0,1,8.3,3.81c2.72,2.65,8.32,1.7,9.37-2.3C338.6,314.4,334.19,317.91,330.52,311.58Z" transform="translate(-158.67 -263.5)"/></svg>