<svg xmlns="http://www.w3.org/2000/svg" viewBox="0 0 576 140.4"><!-- Generator: Adobe Illustrator 30.0.0, SVG Export Plug-In . SVG Version: 2.1.1 Build 123)  --><defs><style>
      .st0 {
        fill: #009cde;
      }

      .st1 {
        fill: #fff;
      }

      .st2 {
        fill: #ffcd00;
      }
    </style></defs><g><path class="st0" d="M109.9,138.8c-2.4-1-4.3-2.6-5.7-4.5-1.4-2-2.3-4.3-2.7-6.9h7.9c.5,2.3,1.4,4,2.7,5,1.4,1,3.4,1.5,6,1.5s3.8-.4,4.9-1.3c1.2-.9,1.7-2.1,1.7-3.7s-.6-2.2-1.8-2.8c-1.2-.6-3.1-1.2-5.7-1.7l-1.7-.3c-2.6-.5-4.8-1.2-6.7-1.9-1.8-.8-3.4-1.9-4.7-3.3-1.3-1.4-1.9-3.4-1.9-5.7s.6-4.4,1.9-6.3c1.3-1.8,3-3.3,5.2-4.3,2.2-1,4.7-1.5,7.5-1.5,4.6,0,8.3,1.1,11,3.3,2.7,2.2,4.3,5.4,4.8,9.5h-7.8c-.3-2.2-1-3.8-2.3-4.9-1.3-1-3.2-1.6-5.7-1.6s-3.5.4-4.6,1.3c-1.1.9-1.7,2.1-1.7,3.5s.4,1.8,1.1,2.4c.7.6,1.6,1,2.7,1.3,1.1.3,2.6.7,4.7,1.1l1.3.2c2.5.5,4.7,1.1,6.5,1.8,1.8.7,3.3,1.8,4.5,3.3,1.2,1.5,1.8,3.4,1.8,5.7s-.6,4.6-1.8,6.5c-1.2,1.8-2.9,3.3-5.1,4.3-2.2,1-4.8,1.5-7.8,1.5s-6.2-.5-8.6-1.6Z"/><path class="st0" d="M154.1,137.9c-2.7-1.6-4.8-4-6.3-6.9-1.5-3-2.3-6.4-2.3-10.3s.8-7.4,2.3-10.4c1.5-3,3.7-5.3,6.4-6.9,2.8-1.6,6-2.4,9.6-2.4s8.4,1.2,11.4,3.6c3,2.4,4.8,6,5.6,10.7h-8c-.5-2.5-1.6-4.4-3.1-5.5-1.5-1.2-3.5-1.7-5.9-1.7s-3.8.5-5.3,1.5c-1.5,1-2.6,2.4-3.4,4.3-.8,1.9-1.2,4.1-1.2,6.6v.7c0,2.6.4,4.8,1.2,6.7.8,1.8,1.9,3.3,3.3,4.2,1.4,1,3.2,1.5,5.2,1.5s4.7-.6,6.2-1.9c1.6-1.3,2.6-3.3,3-6.1h8.1c-.6,5-2.5,8.7-5.5,11.2-3.1,2.5-7.1,3.7-11.9,3.7s-6.7-.8-9.4-2.5Z"/><path class="st0" d="M197.4,101.7h8.2v37.9h-8.2v-37.9Z"/><path class="st0" d="M222.2,101.7h27.9v6.6h-19.8v8.6h12.9v6.7h-12.9v9.5h20.5v6.6h-28.6v-37.9Z"/><path class="st0" d="M265.8,101.7h9.2l16.2,24.9v-24.9h7.3v38h-7.8l-17.5-27v27h-7.3v-37.9Z"/><path class="st0" d="M320.9,137.9c-2.7-1.6-4.8-4-6.3-6.9-1.5-3-2.3-6.4-2.3-10.3s.8-7.4,2.3-10.4c1.5-3,3.7-5.3,6.4-6.9,2.8-1.6,6-2.4,9.6-2.4s8.4,1.2,11.4,3.6c3,2.4,4.8,6,5.6,10.7h-8c-.5-2.5-1.6-4.4-3.1-5.5-1.5-1.2-3.5-1.7-5.9-1.7s-3.8.5-5.3,1.5c-1.5,1-2.6,2.4-3.4,4.3-.8,1.9-1.2,4.1-1.2,6.6v.7c0,2.6.4,4.8,1.2,6.7.8,1.8,1.9,3.3,3.3,4.2,1.4,1,3.2,1.5,5.2,1.5s4.7-.6,6.2-1.9c1.6-1.3,2.6-3.3,3-6.1h8.1c-.6,5-2.5,8.7-5.5,11.2-3.1,2.5-7.1,3.7-11.9,3.7s-6.7-.8-9.4-2.5Z"/><path class="st0" d="M362.3,101.7h27.9v6.6h-19.8v8.6h12.9v6.7h-12.9v9.5h20.5v6.6h-28.6v-37.9Z"/></g><g><path class="st1" d="M132.9,21.4c-1.7-6.1-4.2-12.7-12.5-12.7s-10.6,5.4-10.6,10.5,4.6,10.2,12.1,14.2c7.4,3.8,16.5,8.3,16.5,19s-8.5,18.1-21.2,18.1-7-.8-9.3-1.4c-2.4-.9-3.8-1.5-4.7-2-.8-2-2-10.2-2.6-14.8l2.8-.7c1.5,5.8,5.8,15.5,15.6,15.5s11.4-4.5,11.4-11.5-5.2-10.4-12.4-14.2c-6.1-3.3-15.7-8-15.7-18.8s7.3-17,19.7-17,8.4,1.1,12,2.2c.4,3.4.9,7.2,1.6,13.2l-2.8.6Z"/><path class="st1" d="M197,69v-2.5c5.6-.6,6.7-1,6.7-7.7v-16c0-6.8-2.4-11.1-8.4-11.1s-7.1,1.9-10.7,5c.2,1.1.3,2.2.3,4v18.6c0,6,.9,6.6,6.1,7.2v2.5h-20.4v-2.5c5.9-.6,6.8-1.1,6.8-7.4v-16.4c0-7.1-2.5-11-8.3-11s-7.5,2.6-10.4,5v22.5c0,6.2.8,6.8,5.4,7.4v2.5h-20.1v-2.5c6.3-.6,7.2-1.1,7.2-7.4v-19.8c0-6.1-.3-6.6-5.8-7.5v-2.2c4.2-.8,9.1-2,13.3-3.9v7.7c2-1.3,4.1-3.1,7-4.9,2.5-1.5,4.8-2.6,7.8-2.6,4.6,0,8.7,2.9,10.6,7.8,2.8-2.1,5.5-3.9,7.9-5.4,2-1.3,4.5-2.5,7.2-2.5,7.4,0,12.1,5.3,12.1,14.6v18.5c0,6.4.8,6.8,6.2,7.4v2.5h-20.3Z"/><path class="st1" d="M222.5,69v-2.5c6-.6,6.7-1.1,6.7-7.6v-19.7c0-5.9-.3-6.3-6-7.3v-2.3c4.9-.8,9.3-2,13.5-3.7v33c0,6.5.7,7.1,6.8,7.6v2.5h-21Z"/><path class="st1" d="M227.6,12.9c0-2.9,2.3-5,4.9-5s4.8,2.1,4.8,5-2.1,4.9-4.9,4.9-4.8-2.3-4.8-4.9"/><path class="st1" d="M265.8,68.9c-1.6.9-3.2,1.2-4,1.2-6,0-9.3-3.8-9.3-11.4v-27.8h-6.6l-.4-1,2.6-2.8h4.4v-7l6.2-6.3,1.3.2v13.1h10.8c.9,1,.6,3.1-.6,3.7h-10.2v24.6c0,7.7,3.1,9.2,5.5,9.2s4.6-1,5.9-1.6l.9,2.5-6.5,3.3Z"/><path class="st1" d="M302.4,69v-2.5c5.5-.6,6.3-1.1,6.3-7.4v-15.9c0-7.8-3-11.8-9.4-11.8s-7.2,1.8-9.9,4.9v22.8c0,6.1.5,6.8,6.1,7.4v2.5h-20.2v-2.5c5.7-.5,6.6-1.1,6.6-7.4V13.6c0-6-.2-6.5-6.5-7.1v-2.2c4.6-.7,10.3-2.2,14-3.3v32.1c3.3-3.4,8.5-7,13.6-7,7.7,0,13.2,4.9,13.2,16.4v16.7c0,6.3.7,6.9,6.3,7.4v2.5h-20.1Z"/><path class="st1" d="M351.8,38.5c-1.8-5.6-5.2-9.5-9.8-9.5s-6.2,2.9-6.2,6.6,3.8,6.5,8.1,8.3c7.2,3,12,6.4,12,13s-8.1,13.2-15.7,13.2-9.3-1.8-11-3.3c-.7-1.3-1.5-7.8-1.5-11.3l2.5-.5c1.7,6.3,6,11.9,11.7,11.9s6.8-2.7,6.8-6.7-2.8-6.5-7.5-8.7c-5.7-2.7-11.9-5.8-11.9-13.2s5.7-12.3,14.5-12.3,6.5.9,8.5,1.6c.8,2.2,1.8,7.8,2.1,10.2l-2.5.6Z"/><path class="st1" d="M371.9,46c0,12,5.2,21,13.1,21s10.8-4.4,10.8-17.5-4.5-20.3-12.8-20.3-11.1,5.9-11.1,16.7M404.7,47.4c0,15.4-11.3,22.8-20.7,22.8s-20.9-10.5-20.9-21.1c0-15.8,12.2-23,20.9-23s20.7,9.5,20.7,21.3"/><path class="st1" d="M437.1,69v-2.5c5.6-.6,6.3-1.3,6.3-7.9v-16c0-6.6-2.3-10.9-8.7-10.9s-7.5,2.4-10.4,4.9v22.5c0,6.5.6,6.9,6.2,7.5v2.5h-20.7v-2.5c6.5-.7,7-1.1,7-7.5v-19.8c0-6.1-.6-6.4-5.7-7.4v-2.2c4.6-.9,9.1-2,13.3-3.9v7.7c1.9-1.4,4-2.9,6.4-4.5,2.7-1.7,5.2-2.9,7.9-2.9,7.5,0,12.3,5.3,12.3,14.5v18.5c0,6.5.5,6.9,6,7.5v2.5h-19.8Z"/><path class="st1" d="M462.3,69v-2.5c6-.6,6.7-1.1,6.7-7.6v-19.7c0-5.9-.3-6.3-6-7.3v-2.3c4.9-.8,9.3-2,13.5-3.7v33c0,6.5.7,7.1,6.8,7.6v2.5h-21Z"/><path class="st1" d="M467.3,12.9c0-2.9,2.3-5,4.9-5s4.8,2.1,4.8,5-2.1,4.9-4.9,4.9-4.8-2.3-4.8-4.9"/><path class="st1" d="M511.3,46.1c-2,1.1-6.6,3.1-8.6,4-3.7,1.7-5.8,3.5-5.8,7,0,5,3.8,7.4,6.8,7.4,2.5,0,5.8-1.7,7.6-3.4v-14.9ZM518.3,70.2c-1.4,0-3.4-.9-4.5-1.8-1.2-1.3-1.8-2.7-2.3-4.3-3.8,2.6-8.4,6.1-11.3,6.1-6.8,0-11.4-5.6-11.4-11.7s2.5-7.6,7.7-9.5c5.7-1.9,12.7-4.5,14.8-6.2v-1.7c0-6.9-3.2-10.8-8-10.8s-3.3.8-4.3,1.9c-1.2,1.2-2.1,3.3-2.9,6.3-.4,1.5-1.4,2.2-2.8,2.2s-4.2-1.9-4.2-4.1,1.2-2.5,3.1-3.8c2.7-1.9,8.9-5.6,14.3-6.7,2.9,0,5.7.9,7.8,2.6,3.3,2.8,4.3,6.7,4.3,11.7v17.8c0,4.3,1.7,5.7,3.3,5.7s2.5-.5,3.4-1.1l1,2.5-8.1,4.9Z"/><path class="st1" d="M556.2,69v-2.5c5.6-.6,6.3-1.3,6.3-7.9v-16c0-6.6-2.3-10.9-8.7-10.9s-7.5,2.4-10.4,4.9v22.5c0,6.5.6,6.9,6.2,7.5v2.5h-20.7v-2.5c6.5-.7,7-1.1,7-7.5v-19.8c0-6.1-.6-6.4-5.7-7.4v-2.2c4.6-.9,9.1-2,13.3-3.9v7.7c1.9-1.4,4-2.9,6.4-4.5,2.7-1.7,5.2-2.9,7.9-2.9,7.5,0,12.3,5.3,12.3,14.5v18.5c0,6.5.5,6.9,6,7.5v2.5h-19.8Z"/></g><path class="st0" d="M37.9,0C17,0,0,17,0,38s17,38,37.9,38,37.9-17,37.9-38S58.9,0,37.9,0ZM59.6,50.6c-3.4-3.3-7.7-3.6-7.9-3.6l4.3,6.6,4.8,7.4-14-9.2s0,0,0,0c.3.3,3.1,3.1,1.8,7.9-1.8,6.7,3.5,7.3,3.5,7.3-3.4,2-7.8-1.1-7.8-4.7,0-4.8-2.9-8-3-8.1l-3.4,16.4-3.4-16.4s0,0,0,0c0,.5,0,4.4-4.3,6.8-6,3.5-2.7,7.7-2.7,7.7-3.8-1-4.7-6.3-2.2-8.9,3.4-3.5,3.6-7.8,3.6-7.9l-14,9.2,9.2-14s0,0,0,0c-.3.3-3.1,3.1-7.8,1.8-6.7-1.8-7.3,3.6-7.3,3.6-2-3.4,1.1-7.8,4.7-7.9,4.8,0,8-2.9,8.1-3h0s-16.4-3.4-16.4-3.4l16.4-3.4h0c-.5,0-4.4,0-6.8-4.3-3.5-6-7.7-2.7-7.7-2.7,1-3.8,6.3-4.7,8.9-2.2,3.5,3.4,7.8,3.6,7.9,3.6,0,0,0,0,0,0l-1.7-2.6-7.5-11.4,14,9.2h0c-.3-.3-3.1-3.1-1.8-7.9,1.8-6.7-3.5-7.3-3.5-7.3,3.4-2,7.8,1.1,7.8,4.7,0,4.8,2.9,8,3,8.1h0s3.4-16.4,3.4-16.4l3.4,16.4h0c0-.5,0-4.4,4.3-6.8,6-3.5,2.7-7.7,2.7-7.7,3.8,1,4.7,6.3,2.2,8.9-3.3,3.4-3.6,7.7-3.6,7.9h0s14-9.2,14-9.2l-9.2,14h0c.3-.3,3.1-3.1,7.8-1.8,6.7,1.8,7.3-3.6,7.3-3.6,2,3.4-1.1,7.8-4.7,7.9-4.8,0-8,2.9-8.1,3h0s16.4,3.4,16.4,3.4l-16.4,3.4s0,0,0,0c.5,0,4.4,0,6.8,4.3,3.5,6,7.7,2.7,7.7,2.7-1,3.8-6.3,4.7-8.9,2.2Z"/><path class="st2" d="M60.8,45.7c-2.5-4.2-6.3-4.3-6.8-4.3,0,0,0,0,0,0l16.4-3.4-16.4-3.4h0c.2-.2,3.4-3,8.1-3,3.6,0,6.7-4.5,4.7-7.9,0,0-.6,5.3-7.3,3.6-4.7-1.2-7.5,1.5-7.8,1.8h0s9.2-14,9.2-14l-14,9.2h0c0-.2.3-4.5,3.6-7.9,2.5-2.6,1.6-7.9-2.2-8.9,0,0,3.3,4.2-2.7,7.7-4.2,2.5-4.3,6.4-4.3,6.8h0s-3.4-16.4-3.4-16.4l-3.4,16.4h0c-.1-.1-3-3.3-3-8.1,0-3.6-4.5-6.7-7.8-4.7,0,0,5.3.6,3.5,7.3-1.2,4.7,1.5,7.5,1.8,7.9h0s-14-9.2-14-9.2l7.5,11.4,1.7,2.6s0,0,0,0c-.1,0-4.4-.2-7.9-3.6-2.6-2.5-7.9-1.6-8.9,2.2,0,0,4.2-3.4,7.7,2.7,2.5,4.2,6.4,4.3,6.8,4.3h0s-16.4,3.4-16.4,3.4l16.4,3.4h0c-.1.1-3.3,3-8.1,3-3.6,0-6.7,4.5-4.7,7.9,0,0,.6-5.3,7.3-3.6,4.7,1.3,7.5-1.5,7.8-1.8,0,0,0,0,0,0l-9.2,14,14-9.2c0,.1-.2,4.4-3.6,7.9-2.5,2.6-1.6,7.9,2.2,8.9,0,0-3.3-4.2,2.7-7.7,4.2-2.5,4.3-6.4,4.3-6.8,0,0,0,0,0,0l3.4,16.4,3.4-16.4c.1.1,3,3.3,3,8.1,0,3.6,4.5,6.7,7.8,4.7,0,0-5.3-.6-3.5-7.3,1.2-4.7-1.5-7.5-1.8-7.9,0,0,0,0,0,0l14,9.2-4.8-7.4-4.3-6.6c.2,0,4.5.3,7.9,3.6,2.6,2.5,7.9,1.6,8.9-2.2,0,0-4.2,3.4-7.7-2.7Z"/></svg>