<svg xmlns="http://www.w3.org/2000/svg" viewBox="0 0 543.2 324"><!-- Generator: Adobe Illustrator 30.0.0, SVG Export Plug-In . SVG Version: 2.1.1 Build 123)  --><defs><style>
      .st0 {
        fill: #009cde;
      }

      .st1 {
        fill: #fff;
      }

      .st2 {
        fill: #ffcd00;
      }
    </style></defs><g><path class="st0" d="M117.2,322.2c-2.7-1.2-4.9-2.9-6.4-5.1-1.6-2.2-2.6-4.8-3-7.8h9c.5,2.6,1.5,4.5,3.1,5.7,1.5,1.2,3.8,1.7,6.8,1.7s4.3-.5,5.6-1.5c1.3-1,2-2.4,2-4.2s-.7-2.5-2.1-3.2c-1.4-.7-3.5-1.4-6.4-2l-1.9-.4c-2.9-.6-5.4-1.3-7.5-2.2-2.1-.9-3.9-2.1-5.3-3.8-1.4-1.6-2.1-3.8-2.1-6.5s.7-5,2.1-7.1c1.4-2.1,3.4-3.7,5.9-4.9,2.5-1.1,5.3-1.7,8.4-1.7,5.2,0,9.4,1.3,12.5,3.8,3.1,2.5,4.9,6.1,5.4,10.7h-8.9c-.3-2.5-1.2-4.3-2.7-5.5s-3.6-1.8-6.4-1.8-3.9.5-5.2,1.5c-1.3,1-1.9,2.3-1.9,4s.4,2,1.2,2.7c.8.7,1.8,1.2,3,1.5,1.2.3,3,.8,5.3,1.2l1.4.3c2.8.6,5.3,1.3,7.3,2.1,2,.8,3.7,2.1,5.1,3.7,1.3,1.7,2,3.8,2,6.5s-.7,5.3-2,7.3c-1.3,2.1-3.3,3.7-5.8,4.9-2.5,1.1-5.4,1.7-8.8,1.7s-7.1-.6-9.8-1.8Z"/><path class="st0" d="M167.3,321.2c-3.1-1.9-5.4-4.5-7.2-7.9-1.7-3.4-2.6-7.3-2.6-11.7s.9-8.4,2.6-11.7c1.7-3.4,4.2-6,7.3-7.8,3.1-1.8,6.7-2.8,10.8-2.8s9.6,1.4,12.9,4.1c3.3,2.7,5.5,6.8,6.4,12.1h-9.1c-.6-2.8-1.8-4.9-3.5-6.2-1.7-1.3-4-2-6.7-2s-4.3.6-6,1.7c-1.7,1.1-2.9,2.7-3.8,4.8-.9,2.1-1.3,4.6-1.3,7.5v.8c0,2.9.4,5.4,1.3,7.5.9,2.1,2.1,3.7,3.8,4.8,1.6,1.1,3.6,1.7,5.9,1.7s5.3-.7,7.1-2.1c1.8-1.4,2.9-3.7,3.4-6.9h9.1c-.7,5.7-2.8,9.9-6.3,12.7-3.5,2.8-8,4.2-13.5,4.2s-7.6-.9-10.6-2.8Z"/><path class="st0" d="M216.3,280.2h9.3v43h-9.3v-43Z"/><path class="st0" d="M244.4,280.2h31.7v7.4h-22.5v9.7h14.6v7.6h-14.6v10.7h23.2v7.5h-32.4v-43Z"/><path class="st0" d="M293.8,280.2h10.4l18.3,28.2v-28.2h8.3v43h-8.9l-19.9-30.6v30.6h-8.3v-43Z"/><path class="st0" d="M356.2,321.2c-3.1-1.9-5.4-4.5-7.2-7.9-1.7-3.4-2.6-7.3-2.6-11.7s.9-8.4,2.6-11.7c1.7-3.4,4.2-6,7.3-7.8,3.1-1.8,6.7-2.8,10.8-2.8s9.6,1.4,12.9,4.1c3.3,2.7,5.5,6.8,6.4,12.1h-9.1c-.6-2.8-1.8-4.9-3.5-6.2-1.7-1.3-4-2-6.7-2s-4.3.6-6,1.7c-1.7,1.1-2.9,2.7-3.8,4.8-.9,2.1-1.3,4.6-1.3,7.5v.8c0,2.9.4,5.4,1.3,7.5.9,2.1,2.1,3.7,3.8,4.8,1.6,1.1,3.6,1.7,5.9,1.7s5.3-.7,7.1-2.1c1.8-1.4,2.9-3.7,3.4-6.9h9.1c-.7,5.7-2.8,9.9-6.3,12.7-3.5,2.8-8,4.2-13.5,4.2s-7.6-.9-10.6-2.8Z"/><path class="st0" d="M403.2,280.2h31.7v7.4h-22.5v9.7h14.6v7.6h-14.6v10.7h23.2v7.5h-32.4v-43Z"/></g><g><path class="st1" d="M36.9,186.1c-2-7-4.8-14.6-14.3-14.6s-12.1,6.2-12.1,12.1,5.2,11.8,13.8,16.3c8.5,4.4,18.9,9.6,18.9,21.9s-9.7,20.8-24.2,20.8-8-.9-10.7-1.6c-2.7-1-4.4-1.8-5.3-2.3-.9-2.3-2.3-11.8-2.9-17l3.2-.8c1.7,6.7,6.6,17.8,17.9,17.8s13.1-5.2,13.1-13.2-6-12-14.2-16.4c-7-3.7-18-9.2-18-21.6s8.4-19.6,22.5-19.6,9.6,1.2,13.7,2.5c.4,4,1,8.2,1.9,15.2l-3.2.7Z"/><path class="st1" d="M110,240.8v-2.9c6.4-.7,7.6-1.1,7.6-8.9v-18.3c0-7.8-2.7-12.7-9.6-12.7s-8.1,2.2-12.2,5.7c.2,1.3.3,2.5.3,4.6v21.4c0,6.9,1,7.6,7,8.2v2.9h-23.3v-2.9c6.8-.7,7.7-1.2,7.7-8.5v-18.9c0-8.1-2.8-12.6-9.5-12.6s-8.6,3-11.9,5.7v25.8c0,7.1.9,7.8,6.2,8.5v2.9h-23v-2.9c7.2-.7,8.2-1.3,8.2-8.5v-22.7c0-7-.3-7.6-6.7-8.6v-2.5c4.8-.9,10.4-2.3,15.2-4.5v8.9c2.3-1.5,4.7-3.5,8-5.6,2.8-1.8,5.5-3,8.9-3,5.2,0,9.9,3.3,12.1,9,3.2-2.4,6.3-4.5,9.1-6.2,2.3-1.5,5.1-2.9,8.2-2.9,8.5,0,13.8,6,13.8,16.8v21.2c0,7.4.9,7.8,7.1,8.5v2.9h-23.2Z"/><path class="st1" d="M139.2,240.8v-2.9c6.9-.7,7.6-1.3,7.6-8.8v-22.6c0-6.8-.3-7.3-6.9-8.4v-2.6c5.6-.9,10.7-2.3,15.5-4.3v37.9c0,7.5.8,8.1,7.7,8.8v2.9h-24Z"/><path class="st1" d="M145,176.3c0-3.3,2.6-5.7,5.6-5.7s5.5,2.4,5.5,5.7-2.4,5.6-5.6,5.6-5.5-2.6-5.5-5.6"/><path class="st1" d="M188.8,240.7c-1.9,1-3.6,1.4-4.6,1.4-6.9,0-10.7-4.4-10.7-13.1v-32h-7.5l-.4-1.1,2.9-3.2h5v-8l7.1-7.3,1.5.2v15.1h12.3c1,1.1.7,3.5-.7,4.3h-11.7v28.2c0,8.9,3.6,10.6,6.3,10.6s5.2-1.1,6.8-1.9l1,2.9-7.4,3.8Z"/><path class="st1" d="M230.5,240.8v-2.9c6.3-.7,7.2-1.3,7.2-8.5v-18.2c0-9-3.4-13.5-10.7-13.5s-8.3,2.1-11.3,5.6v26.2c0,7,.5,7.8,7,8.5v2.9h-23.1v-2.9c6.5-.5,7.5-1.2,7.5-8.5v-52.4c0-6.9-.2-7.5-7.4-8.1v-2.5c5.2-.8,11.8-2.5,16-3.8v36.9c3.8-4,9.7-8,15.6-8,8.8,0,15,5.6,15,18.8v19.2c0,7.3.8,7.9,7.2,8.5v2.9h-23Z"/><path class="st1" d="M287,205.8c-2.1-6.5-5.9-10.9-11.2-10.9s-7.1,3.3-7.1,7.6,4.4,7.5,9.3,9.6c8.2,3.4,13.7,7.4,13.7,14.9s-9.3,15.2-18,15.2-10.6-2.1-12.5-3.7c-.8-1.5-1.7-9-1.7-13l2.8-.5c2,7.3,6.9,13.6,13.4,13.6s7.7-3.1,7.7-7.7-3.2-7.5-8.6-10c-6.5-3.1-13.6-6.7-13.6-15.2s6.5-14.2,16.6-14.2,7.4,1,9.7,1.9c.9,2.5,2.1,9,2.4,11.8l-2.8.7Z"/><path class="st1" d="M310,214.3c0,13.8,6,24.2,14.9,24.2s12.3-5.1,12.3-20.1-5.1-23.3-14.6-23.3-12.6,6.8-12.6,19.2M347.4,216c0,17.7-12.9,26.2-23.7,26.2s-23.9-12.1-23.9-24.3c0-18.1,14-26.4,23.9-26.4s23.7,10.9,23.7,24.5"/><path class="st1" d="M384.5,240.8v-2.9c6.4-.7,7.2-1.5,7.2-9.1v-18.4c0-7.6-2.6-12.5-9.9-12.5s-8.6,2.7-11.9,5.6v25.8c0,7.5.7,7.9,7.1,8.6v2.9h-23.7v-2.9c7.4-.8,8-1.3,8-8.6v-22.7c0-7-.7-7.4-6.5-8.5v-2.5c5.2-1,10.4-2.3,15.2-4.5v8.8c2.2-1.6,4.6-3.3,7.3-5.2,3.1-2,5.9-3.3,9.1-3.3,8.6,0,14.1,6,14.1,16.7v21.2c0,7.5.5,7.9,6.9,8.6v2.9h-22.7Z"/><path class="st1" d="M413.3,240.8v-2.9c6.9-.7,7.6-1.3,7.6-8.8v-22.6c0-6.8-.3-7.3-6.9-8.4v-2.6c5.6-.9,10.7-2.3,15.5-4.3v37.9c0,7.5.8,8.1,7.7,8.8v2.9h-24Z"/><path class="st1" d="M419,176.3c0-3.3,2.6-5.7,5.6-5.7s5.5,2.4,5.5,5.7-2.4,5.6-5.6,5.6-5.4-2.6-5.4-5.6"/><path class="st1" d="M469.3,214.4c-2.3,1.2-7.5,3.5-9.8,4.6-4.3,2-6.7,4.1-6.7,8,0,5.7,4.4,8.5,7.7,8.5,2.8-.1,6.6-2,8.7-4v-17.1ZM477.3,242.1c-1.6,0-3.9-1-5.1-2.1-1.4-1.5-2.1-3.1-2.6-4.9-4.4,3-9.6,7-12.9,7-7.7,0-13.1-6.5-13.1-13.4s2.8-8.8,8.8-10.9c6.5-2.2,14.5-5.2,16.9-7.1v-2c0-7.9-3.7-12.4-9.2-12.4s-3.8.9-4.9,2.2c-1.4,1.4-2.4,3.8-3.3,7.3-.4,1.8-1.6,2.5-3.2,2.5s-4.8-2.2-4.8-4.7,1.4-2.9,3.5-4.4c3.1-2.2,10.1-6.5,16.4-7.7,3.3,0,6.5,1,8.9,3,3.8,3.2,4.9,7.7,4.9,13.4v20.4c0,4.9,2,6.6,3.8,6.6s2.8-.6,3.9-1.2l1.1,2.9-9.3,5.6Z"/><path class="st1" d="M520.6,240.8v-2.9c6.4-.7,7.2-1.5,7.2-9.1v-18.4c0-7.6-2.6-12.5-9.9-12.5s-8.6,2.7-11.9,5.6v25.8c0,7.5.7,7.9,7.1,8.6v2.9h-23.7v-2.9c7.4-.8,8-1.3,8-8.6v-22.7c0-7-.7-7.4-6.5-8.5v-2.5c5.2-1,10.4-2.3,15.2-4.5v8.8c2.2-1.6,4.6-3.3,7.3-5.2,3.1-2,5.9-3.3,9-3.3,8.6,0,14.1,6,14.1,16.7v21.2c0,7.5.5,7.9,6.9,8.6v2.9h-22.7Z"/></g><path class="st0" d="M271.6,0C233.8,0,203.2,30.9,203.2,69s30.6,69,68.5,69,68.5-30.9,68.5-69S309.4,0,271.6,0ZM310.7,91.8c-6.2-6.1-13.9-6.5-14.2-6.6l7.8,12,8.7,13.4-25.2-16.7s0,0,0,0c.6.6,5.5,5.6,3.3,14.2-3.2,12.2,6.4,13.3,6.4,13.3-6.1,3.6-14.1-2-14.2-8.6-.1-8.7-5.3-14.5-5.5-14.8h0s-6.2,29.8-6.2,29.8l-6.2-29.8s0,0,0,0c0,.8,0,7.9-7.7,12.4-10.8,6.4-4.8,14-4.8,14-6.9-1.8-8.5-11.5-4-16.2,6.1-6.3,6.5-14.1,6.5-14.4l-25.2,16.7,16.5-25.4s0,0,0,0c-.6.6-5.6,5.6-14.1,3.3-12.1-3.2-13.2,6.5-13.2,6.5-3.6-6.2,2-14.2,8.5-14.3,8.7-.1,14.5-5.3,14.7-5.5h0s-29.5-6.2-29.5-6.2l29.5-6.2s0,0,0,0c-.8,0-7.9,0-12.3-7.7-6.3-10.9-13.9-4.8-13.9-4.8,1.8-6.9,11.4-8.6,16.1-4,6.2,6.1,14,6.5,14.2,6.5,0,0,0,0,0,0l-3.1-4.7-13.5-20.7,25.3,16.7s0,0,0,0c-.6-.6-5.5-5.6-3.3-14.2,3.2-12.2-6.4-13.3-6.4-13.3,6.1-3.6,14.1,2.1,14.2,8.6.1,8.7,5.2,14.5,5.5,14.8,0,0,0,0,0,0l6.2-29.8,6.2,29.8s0,0,0,0c0-.9,0-7.9,7.7-12.4,10.8-6.4,4.8-14,4.8-14,6.9,1.8,8.5,11.5,4,16.2-6,6.2-6.5,14-6.5,14.4,0,0,0,0,0,0l25.2-16.7-16.5,25.4s0,0,0,0c.6-.6,5.6-5.6,14.1-3.3,12.1,3.2,13.2-6.5,13.2-6.5,3.6,6.2-2,14.2-8.5,14.3-8.6.1-14.4,5.2-14.7,5.5h0s29.5,6.2,29.5,6.2l-29.5,6.2s0,0,0,0c.9,0,7.9,0,12.3,7.7,6.3,10.9,13.9,4.8,13.9,4.8-1.8,6.9-11.4,8.6-16.1,4Z"/><path class="st2" d="M312.9,83c-4.4-7.7-11.4-7.8-12.3-7.7,0,0,0,0,0,0l29.5-6.2-29.5-6.2h0c.3-.3,6.1-5.4,14.7-5.5,6.5,0,12.1-8.1,8.5-14.3,0,0-1.1,9.7-13.2,6.5-8.5-2.3-13.5,2.7-14.1,3.3,0,0,0,0,0,0l16.5-25.4-25.2,16.7s0,0,0,0c0-.4.5-8.1,6.5-14.4,4.5-4.7,2.9-14.4-4-16.2,0,0,6,7.6-4.8,14-7.6,4.5-7.7,11.5-7.7,12.4,0,0,0,0,0,0l-6.2-29.8-6.2,29.8s0,0,0,0c-.2-.3-5.4-6.1-5.5-14.8,0-6.6-8.1-12.2-14.2-8.6,0,0,9.6,1.1,6.4,13.3-2.3,8.6,2.7,13.7,3.3,14.2,0,0,0,0,0,0l-25.3-16.7,13.5,20.7,3.1,4.7s0,0,0,0c-.2,0-8-.4-14.2-6.5-4.7-4.6-14.3-2.9-16.1,4,0,0,7.5-6.1,13.9,4.8,4.4,7.7,11.5,7.8,12.3,7.7,0,0,0,0,0,0l-29.5,6.2,29.5,6.2h0c-.2.2-6,5.4-14.7,5.5-6.5,0-12.1,8.1-8.5,14.3,0,0,1.1-9.7,13.2-6.5,8.6,2.3,13.6-2.7,14.1-3.3,0,0,0,0,0,0l-16.5,25.4,25.2-16.7c0,.3-.4,8.1-6.5,14.4-4.5,4.7-2.9,14.4,4,16.2,0,0-6-7.6,4.8-14,7.6-4.5,7.7-11.6,7.7-12.4,0,0,0,0,0,0l6.2,29.8,6.2-29.8h0c.2.2,5.3,6,5.5,14.8,0,6.5,8.1,12.2,14.2,8.6,0,0-9.6-1.1-6.4-13.3,2.3-8.6-2.7-13.7-3.3-14.2,0,0,0,0,0,0l25.2,16.7-8.7-13.4-7.8-12c.3,0,8,.5,14.2,6.6,4.7,4.6,14.3,2.9,16.1-4,0,0-7.5,6.1-13.9-4.8Z"/></svg>