<?xml version="1.0" encoding="UTF-8"?>
<svg id="Layer_1" data-name="Layer 1" xmlns="http://www.w3.org/2000/svg" viewBox="0 0 415.74 132.28">
  <defs>
    <style>
      .cls-1 {
        fill: #231f20;
      }
    </style>
  </defs>
  <g>
    <path class="cls-1" d="M2.12,97.53l23.75,1.63-10.95,19.29c-5.89-5.71-10.35-12.87-12.8-20.92"/>
    <g>
      <path class="cls-1" d="M84.51,49.33l-20.36,14.27-.96-1.36-5.84,4.08-3.01-4.3,5.84-4.08-.96-1.36,18.64-13.07c-8.07-5.89-18.04-9.35-28.82-9.35C21.97,34.16,0,56.13,0,83.23c0,1.16.04,2.32.13,3.46l27.9-.29,15.9-.04,16.59-.31,4.59-16.28,8.74-4.6c1.03-.56,2.31.04,2.01,1.49l-4.64,23.2c-.75,3.65-3.11,10.24-12.74,10.51l-10.39.36.02,31.54c.29.02.6.02.91.02,27.1,0,49.07-21.97,49.07-49.05,0-13.16-5.17-25.09-13.61-33.9M44.63,78.55c-5.71,4.48-13.81,3.68-18.09-1.78-4.28-5.47-3.14-13.52,2.57-18,5.69-4.48,13.78-3.66,18.09,1.81,4.28,5.47,3.12,13.52-2.56,17.98"/>
      <polygon class="cls-1" points="92.32 0 89.7 6.96 82.61 9.87 89.7 12.78 92.32 19.74 94.94 12.78 102.03 9.87 94.94 6.96 92.32 0"/>
      <polygon class="cls-1" points="114.34 54.34 122.18 57.24 114.34 60.14 111.44 70.31 108.54 60.14 100.69 57.24 108.54 54.34 111.44 44.17 114.34 54.34"/>
      <polygon class="cls-1" points="73.53 17.52 81.37 20.42 73.53 23.32 70.63 33.49 67.72 23.32 59.88 20.42 67.72 17.52 70.63 7.36 73.53 17.52"/>
      <path class="cls-1" d="M116.42,29.99l-23.99,16.8c-1.16.81-2.76.53-3.57-.63l-4.79-6.85c-.81-1.16-.53-2.76.63-3.57l23.99-16.8,7.74,11.05Z"/>
    </g>
  </g>
  <path class="cls-1" d="M154.01,129.29c15.81,0,26.35-6.95,26.35-19.17,0-10.3-7.91-17.25-23.96-21.2-12.58-3.11-16.53-5.99-16.53-11.38,0-4.67,5.63-7.91,13.53-7.91,7.31,0,14.14,3.59,16.53,8.63l8.62-5.03c-4.55-8.5-13.66-13.66-24.8-13.66-14.97,0-25.15,7.67-25.15,18.81,0,10.18,7.43,17.01,22.4,20.36,14.25,3.23,18.21,5.99,18.21,11.98,0,4.91-6.11,8.38-14.86,8.38s-16.53-4.43-19.28-10.66l-8.63,5.63c4.55,10.42,16.17,15.21,27.55,15.21"/>
  <path class="cls-1" d="M220.49,128.93c3.83,0,7.79-.84,11.74-2.4v-10.3c-2.75,1.56-5.75,2.16-9.1,2.16-8.86,0-13.66-3.95-13.66-14.5v-32.46h21.56v-9.82h-21.56v-16.77h-.24l-26.11,26.35v.24h15.21v33.66c0,15.21,7.19,23.84,22.16,23.84"/>
  <path class="cls-1" d="M271.64,119.11c-14.01,0-23.97-10.06-23.97-24.31s10.06-24.56,24.33-24.56,23.83,10.17,23.83,24.56-10.65,24.31-24.19,24.31M306.14,58.01l-8.76,14.01c-7.06-8.14-16.05-12.21-27.3-12.21-19.41,0-33.66,14.98-33.66,34.98s14.25,34.5,33.41,34.5c9.94,0,18.93-2.77,25.76-12.1v10.3h10.78V58.01h-.23Z"/>
  <path class="cls-1" d="M324.1,127.5h11.38v-34.86c0-13.78,7.07-21.44,19.76-21.44h2.99v-11.38c-12.1,0-20.6,3.95-24.56,10.42l-9.34-12.22h-.24v69.48Z"/>
  <path class="cls-1" d="M389.39,129.29c15.81,0,26.35-6.95,26.35-19.17,0-10.3-7.91-17.25-23.96-21.2-12.58-3.11-16.53-5.99-16.53-11.38,0-4.67,5.63-7.91,13.53-7.91,7.31,0,14.14,3.59,16.53,8.63l8.62-5.03c-4.55-8.5-13.65-13.66-24.79-13.66-14.97,0-25.15,7.67-25.15,18.81,0,10.18,7.43,17.01,22.4,20.36,14.25,3.23,18.21,5.99,18.21,11.98,0,4.91-6.11,8.38-14.86,8.38s-16.53-4.43-19.28-10.66l-8.62,5.63c4.55,10.42,16.17,15.21,27.55,15.21"/>
  <path class="cls-1" d="M133.21,31.09l2.21-1.31c1,2.49,3.43,3.99,6.42,3.99,3.46,0,5.3-1.56,5.3-3.71,0-1.71-1.19-2.59-4.15-3.58l-2.84-.9c-3.18-1.06-5.83-2.37-5.83-5.92s3.43-5.83,7.2-5.83,6.17,1.62,7.57,4.3l-2.31,1.18c-1.03-1.99-2.71-3.15-5.24-3.15s-4.43,1.28-4.43,3.3c0,2.21,1.93,2.93,3.93,3.61l2.9.93c4.24,1.43,6.05,2.96,6.05,5.95,0,3.93-3.4,6.27-8.1,6.27-3.83,0-7.36-1.81-8.7-5.14"/>
  <polygon class="cls-1" points="170.7 28.06 181.14 13.35 181.14 35.76 178.43 35.76 178.43 21.21 170.73 31.99 162.91 21.24 162.91 35.76 160.19 35.76 160.19 13.35 170.7 28.06"/>
  <rect class="cls-1" x="192.98" y="14.29" width="2.81" height="21.47"/>
  <polygon class="cls-1" points="211.95 35.76 211.95 16.81 205.22 16.81 205.22 14.29 221.52 14.29 221.52 16.81 214.79 16.81 214.79 35.76 211.95 35.76"/>
  <polygon class="cls-1" points="230.99 35.76 230.99 14.29 233.8 14.29 233.8 23.7 246.61 23.7 246.61 14.29 249.44 14.29 249.44 35.76 246.61 35.76 246.61 26.22 233.8 26.22 233.8 35.76 230.99 35.76"/>
  <g>
    <path class="cls-1" d="M259.38,31.09l2.21-1.31c1,2.49,3.43,3.99,6.42,3.99,3.46,0,5.3-1.56,5.3-3.71,0-1.71-1.19-2.59-4.15-3.58l-2.84-.9c-3.18-1.06-5.83-2.37-5.83-5.92s3.43-5.83,7.2-5.83,6.17,1.62,7.57,4.3l-2.31,1.18c-1.03-1.99-2.71-3.15-5.24-3.15s-4.43,1.28-4.43,3.3c0,2.21,1.93,2.93,3.93,3.61l2.9.93c4.24,1.43,6.05,2.96,6.05,5.95,0,3.93-3.4,6.27-8.1,6.27-3.83,0-7.36-1.81-8.7-5.14"/>
    <path class="cls-1" d="M304.56,25.01c0-4.68-3.62-8.48-8.38-8.48s-8.38,3.8-8.38,8.48,3.62,8.51,8.38,8.51,8.38-3.77,8.38-8.51M284.96,25.01c0-6.17,4.86-11.19,11.22-11.19s11.22,5.02,11.22,11.19-4.86,11.22-11.22,11.22-11.22-5.05-11.22-11.22"/>
  </g>
  <polygon class="cls-1" points="335.85 14.29 335.85 36.38 320.52 19.9 320.52 35.76 317.83 35.76 317.83 13.35 333.17 30.15 333.17 14.29 335.85 14.29"/>
  <rect class="cls-1" x="347.68" y="14.29" width="2.81" height="21.47"/>
  <path class="cls-1" d="M365.39,29.75h9.48l-4.74-10.56-4.74,10.56ZM377.54,35.76l-1.71-3.83h-11.44l-1.71,3.83h-2.96l10.41-22.41,10.38,22.41h-2.96Z"/>
  <polygon class="cls-1" points="407.77 14.29 407.77 36.38 392.43 19.9 392.43 35.76 389.75 35.76 389.75 13.35 405.09 30.15 405.09 14.29 407.77 14.29"/>
</svg>